<svg width="559" height="1002" viewBox="0 0 559 1002" fill="none" xmlns="http://www.w3.org/2000/svg">
<g clip-path="url(#clip0_13_38271)">
<rect width="559" height="1002" fill="white"/>
<g filter="url(#filter0_ddd_13_38271)">
<rect width="256" height="976" transform="translate(0 64)" fill="white"/>
<rect width="256" height="48" transform="translate(0 64)" fill="black" fill-opacity="0.04"/>
<path d="M21.5312 82.6328L17.7656 93H16.2266L20.5625 81.625H21.5547L21.5312 82.6328ZM24.6875 93L20.9141 82.6328L20.8906 81.625H21.8828L26.2344 93H24.6875ZM24.4922 88.7891V90.0234H18.1016V88.7891H24.4922ZM27.6812 81H29.1344V91.3594L29.0094 93H27.6812V81ZM34.8453 88.7031V88.8672C34.8453 89.4818 34.7724 90.0521 34.6266 90.5781C34.4807 91.099 34.2672 91.5521 33.9859 91.9375C33.7047 92.3229 33.3609 92.6224 32.9547 92.8359C32.5484 93.0495 32.0823 93.1562 31.5562 93.1562C31.0198 93.1562 30.5484 93.0651 30.1422 92.8828C29.7411 92.6953 29.4026 92.4271 29.1266 92.0781C28.8505 91.7292 28.6292 91.3073 28.4625 90.8125C28.301 90.3177 28.1891 89.7604 28.1266 89.1406V88.4219C28.1891 87.7969 28.301 87.237 28.4625 86.7422C28.6292 86.2474 28.8505 85.8255 29.1266 85.4766C29.4026 85.1224 29.7411 84.8542 30.1422 84.6719C30.5432 84.4844 31.0094 84.3906 31.5406 84.3906C32.0719 84.3906 32.5432 84.4948 32.9547 84.7031C33.3661 84.9062 33.7099 85.1979 33.9859 85.5781C34.2672 85.9583 34.4807 86.4141 34.6266 86.9453C34.7724 87.4714 34.8453 88.0573 34.8453 88.7031ZM33.3922 88.8672V88.7031C33.3922 88.2812 33.3531 87.8854 33.275 87.5156C33.1969 87.1406 33.0719 86.8125 32.9 86.5312C32.7281 86.2448 32.5016 86.0208 32.2203 85.8594C31.9391 85.6927 31.5927 85.6094 31.1812 85.6094C30.8167 85.6094 30.499 85.6719 30.2281 85.7969C29.9625 85.9219 29.7359 86.0911 29.5484 86.3047C29.3609 86.513 29.2073 86.7526 29.0875 87.0234C28.9729 87.2891 28.887 87.5651 28.8297 87.8516V89.7344C28.913 90.099 29.0484 90.4505 29.2359 90.7891C29.4286 91.1224 29.6839 91.3958 30.0016 91.6094C30.3245 91.8229 30.7229 91.9297 31.1969 91.9297C31.5875 91.9297 31.9208 91.8516 32.1969 91.6953C32.4781 91.5339 32.7047 91.3125 32.8766 91.0312C33.0536 90.75 33.1839 90.4245 33.2672 90.0547C33.3505 89.6849 33.3922 89.2891 33.3922 88.8672ZM36.4406 88.8672V88.6875C36.4406 88.0781 36.5292 87.513 36.7062 86.9922C36.8833 86.4661 37.1385 86.0104 37.4719 85.625C37.8052 85.2344 38.2089 84.9323 38.6828 84.7188C39.1568 84.5 39.688 84.3906 40.2766 84.3906C40.8703 84.3906 41.4042 84.5 41.8781 84.7188C42.3573 84.9323 42.7635 85.2344 43.0969 85.625C43.4354 86.0104 43.6932 86.4661 43.8703 86.9922C44.0474 87.513 44.1359 88.0781 44.1359 88.6875V88.8672C44.1359 89.4766 44.0474 90.0417 43.8703 90.5625C43.6932 91.0833 43.4354 91.5391 43.0969 91.9297C42.7635 92.3151 42.3599 92.6172 41.8859 92.8359C41.4172 93.0495 40.8859 93.1562 40.2922 93.1562C39.6984 93.1562 39.1646 93.0495 38.6906 92.8359C38.2167 92.6172 37.8104 92.3151 37.4719 91.9297C37.1385 91.5391 36.8833 91.0833 36.7062 90.5625C36.5292 90.0417 36.4406 89.4766 36.4406 88.8672ZM37.8859 88.6875V88.8672C37.8859 89.2891 37.9354 89.6875 38.0344 90.0625C38.1333 90.4323 38.2818 90.7604 38.4797 91.0469C38.6828 91.3333 38.9354 91.5599 39.2375 91.7266C39.5396 91.888 39.8911 91.9688 40.2922 91.9688C40.688 91.9688 41.0344 91.888 41.3312 91.7266C41.6333 91.5599 41.8833 91.3333 42.0812 91.0469C42.2792 90.7604 42.4276 90.4323 42.5266 90.0625C42.6307 89.6875 42.6828 89.2891 42.6828 88.8672V88.6875C42.6828 88.2708 42.6307 87.8776 42.5266 87.5078C42.4276 87.1328 42.2766 86.8021 42.0734 86.5156C41.8755 86.224 41.6255 85.9948 41.3234 85.8281C41.0266 85.6615 40.6776 85.5781 40.2766 85.5781C39.8807 85.5781 39.5318 85.6615 39.2297 85.8281C38.9328 85.9948 38.6828 86.224 38.4797 86.5156C38.2818 86.8021 38.1333 87.1328 38.0344 87.5078C37.9354 87.8776 37.8859 88.2708 37.8859 88.6875ZM51.2703 91.0469V84.5469H52.7234V93H51.3406L51.2703 91.0469ZM51.5438 89.2656L52.1453 89.25C52.1453 89.8125 52.0854 90.3333 51.9656 90.8125C51.851 91.2865 51.6635 91.6979 51.4031 92.0469C51.1427 92.3958 50.8016 92.6693 50.3797 92.8672C49.9578 93.0599 49.4448 93.1562 48.8406 93.1562C48.4292 93.1562 48.0516 93.0964 47.7078 92.9766C47.3693 92.8568 47.0776 92.6719 46.8328 92.4219C46.588 92.1719 46.3979 91.8464 46.2625 91.4453C46.1323 91.0443 46.0672 90.5625 46.0672 90V84.5469H47.5125V90.0156C47.5125 90.3958 47.5542 90.7109 47.6375 90.9609C47.726 91.2057 47.8432 91.401 47.9891 91.5469C48.1401 91.6875 48.3068 91.7865 48.4891 91.8438C48.6766 91.901 48.8693 91.9297 49.0672 91.9297C49.6818 91.9297 50.1688 91.8125 50.5281 91.5781C50.8875 91.3385 51.1453 91.0182 51.3016 90.6172C51.463 90.2109 51.5438 89.7604 51.5438 89.2656ZM58.6156 84.5469V85.6562H54.0453V84.5469H58.6156ZM55.5922 82.4922H57.0375V90.9062C57.0375 91.1927 57.0818 91.4089 57.1703 91.5547C57.2589 91.7005 57.3734 91.7969 57.5141 91.8438C57.6547 91.8906 57.8057 91.9141 57.9672 91.9141C58.087 91.9141 58.212 91.9036 58.3422 91.8828C58.4776 91.8568 58.5792 91.8359 58.6469 91.8203L58.6547 93C58.5401 93.0365 58.3891 93.0703 58.2016 93.1016C58.0193 93.138 57.7979 93.1562 57.5375 93.1562C57.1833 93.1562 56.8578 93.0859 56.5609 92.9453C56.2641 92.8047 56.0271 92.5703 55.85 92.2422C55.6781 91.9089 55.5922 91.4609 55.5922 90.8984V82.4922Z" fill="black" fill-opacity="0.87"/>
<path d="M24.1875 137.383H25.6875C25.6094 138.102 25.4036 138.745 25.0703 139.312C24.737 139.88 24.2656 140.331 23.6562 140.664C23.0469 140.992 22.2865 141.156 21.375 141.156C20.7083 141.156 20.1016 141.031 19.5547 140.781C19.013 140.531 18.5469 140.177 18.1562 139.719C17.7656 139.255 17.4635 138.701 17.25 138.055C17.0417 137.404 16.9375 136.68 16.9375 135.883V134.75C16.9375 133.953 17.0417 133.232 17.25 132.586C17.4635 131.935 17.7682 131.378 18.1641 130.914C18.5651 130.451 19.0469 130.094 19.6094 129.844C20.1719 129.594 20.8047 129.469 21.5078 129.469C22.3672 129.469 23.0938 129.63 23.6875 129.953C24.2812 130.276 24.7422 130.724 25.0703 131.297C25.4036 131.865 25.6094 132.523 25.6875 133.273H24.1875C24.1146 132.742 23.9792 132.286 23.7812 131.906C23.5833 131.521 23.3021 131.224 22.9375 131.016C22.5729 130.807 22.0964 130.703 21.5078 130.703C21.0026 130.703 20.5573 130.799 20.1719 130.992C19.7917 131.185 19.4714 131.458 19.2109 131.812C18.9557 132.167 18.763 132.591 18.6328 133.086C18.5026 133.581 18.4375 134.13 18.4375 134.734V135.883C18.4375 136.44 18.4948 136.964 18.6094 137.453C18.7292 137.943 18.9089 138.372 19.1484 138.742C19.388 139.112 19.6927 139.404 20.0625 139.617C20.4323 139.826 20.8698 139.93 21.375 139.93C22.0156 139.93 22.526 139.828 22.9062 139.625C23.2865 139.422 23.5729 139.13 23.7656 138.75C23.9635 138.37 24.1042 137.914 24.1875 137.383ZM27.2906 136.867V136.688C27.2906 136.078 27.3792 135.513 27.5562 134.992C27.7333 134.466 27.9885 134.01 28.3219 133.625C28.6552 133.234 29.0589 132.932 29.5328 132.719C30.0068 132.5 30.538 132.391 31.1266 132.391C31.7203 132.391 32.2542 132.5 32.7281 132.719C33.2073 132.932 33.6135 133.234 33.9469 133.625C34.2854 134.01 34.5432 134.466 34.7203 134.992C34.8974 135.513 34.9859 136.078 34.9859 136.688V136.867C34.9859 137.477 34.8974 138.042 34.7203 138.562C34.5432 139.083 34.2854 139.539 33.9469 139.93C33.6135 140.315 33.2099 140.617 32.7359 140.836C32.2672 141.049 31.7359 141.156 31.1422 141.156C30.5484 141.156 30.0146 141.049 29.5406 140.836C29.0667 140.617 28.6604 140.315 28.3219 139.93C27.9885 139.539 27.7333 139.083 27.5562 138.562C27.3792 138.042 27.2906 137.477 27.2906 136.867ZM28.7359 136.688V136.867C28.7359 137.289 28.7854 137.688 28.8844 138.062C28.9833 138.432 29.1318 138.76 29.3297 139.047C29.5328 139.333 29.7854 139.56 30.0875 139.727C30.3896 139.888 30.7411 139.969 31.1422 139.969C31.538 139.969 31.8844 139.888 32.1812 139.727C32.4833 139.56 32.7333 139.333 32.9312 139.047C33.1292 138.76 33.2776 138.432 33.3766 138.062C33.4807 137.688 33.5328 137.289 33.5328 136.867V136.688C33.5328 136.271 33.4807 135.878 33.3766 135.508C33.2776 135.133 33.1266 134.802 32.9234 134.516C32.7255 134.224 32.4755 133.995 32.1734 133.828C31.8766 133.661 31.5276 133.578 31.1266 133.578C30.7307 133.578 30.3818 133.661 30.0797 133.828C29.7828 133.995 29.5328 134.224 29.3297 134.516C29.1318 134.802 28.9833 135.133 28.8844 135.508C28.7854 135.878 28.7359 136.271 28.7359 136.688ZM38.3937 134.352V141H36.9484V132.547H38.3156L38.3937 134.352ZM38.05 136.453L37.4484 136.43C37.4536 135.852 37.5396 135.318 37.7062 134.828C37.8729 134.333 38.1073 133.904 38.4094 133.539C38.7115 133.174 39.0708 132.893 39.4875 132.695C39.9094 132.492 40.3755 132.391 40.8859 132.391C41.3026 132.391 41.6776 132.448 42.0109 132.562C42.3443 132.672 42.6281 132.849 42.8625 133.094C43.1021 133.339 43.2844 133.656 43.4094 134.047C43.5344 134.432 43.5969 134.904 43.5969 135.461V141H42.1437V135.445C42.1437 135.003 42.0786 134.648 41.9484 134.383C41.8182 134.112 41.6281 133.917 41.3781 133.797C41.1281 133.672 40.8208 133.609 40.4562 133.609C40.0969 133.609 39.7687 133.685 39.4719 133.836C39.1802 133.987 38.9276 134.195 38.7141 134.461C38.5057 134.727 38.3417 135.031 38.2219 135.375C38.1073 135.714 38.05 136.073 38.05 136.453ZM49.4813 132.547V133.656H44.9109V132.547H49.4813ZM46.4578 130.492H47.9031V138.906C47.9031 139.193 47.9474 139.409 48.0359 139.555C48.1245 139.701 48.2391 139.797 48.3797 139.844C48.5203 139.891 48.6714 139.914 48.8328 139.914C48.9526 139.914 49.0776 139.904 49.2078 139.883C49.3432 139.857 49.4448 139.836 49.5125 139.82L49.5203 141C49.4057 141.036 49.2547 141.07 49.0672 141.102C48.8849 141.138 48.6635 141.156 48.4031 141.156C48.049 141.156 47.7234 141.086 47.4266 140.945C47.1297 140.805 46.8927 140.57 46.7156 140.242C46.5438 139.909 46.4578 139.461 46.4578 138.898V130.492ZM56.3109 139.555V135.203C56.3109 134.87 56.2432 134.581 56.1078 134.336C55.9776 134.086 55.7797 133.893 55.5141 133.758C55.2484 133.622 54.9203 133.555 54.5297 133.555C54.1651 133.555 53.8448 133.617 53.5687 133.742C53.2979 133.867 53.0844 134.031 52.9281 134.234C52.7771 134.438 52.7016 134.656 52.7016 134.891H51.2562C51.2562 134.589 51.3344 134.289 51.4906 133.992C51.6469 133.695 51.8708 133.427 52.1625 133.188C52.4594 132.943 52.8135 132.75 53.225 132.609C53.6417 132.464 54.1052 132.391 54.6156 132.391C55.2302 132.391 55.7719 132.495 56.2406 132.703C56.7146 132.911 57.0844 133.227 57.35 133.648C57.6208 134.065 57.7562 134.589 57.7562 135.219V139.156C57.7562 139.438 57.7797 139.737 57.8266 140.055C57.8786 140.372 57.9542 140.646 58.0531 140.875V141H56.5453C56.4724 140.833 56.4151 140.612 56.3734 140.336C56.3318 140.055 56.3109 139.794 56.3109 139.555ZM56.5609 135.875L56.5766 136.891H55.1156C54.7042 136.891 54.337 136.924 54.0141 136.992C53.6911 137.055 53.4203 137.151 53.2016 137.281C52.9828 137.411 52.8161 137.576 52.7016 137.773C52.587 137.966 52.5297 138.193 52.5297 138.453C52.5297 138.719 52.5896 138.961 52.7094 139.18C52.8292 139.398 53.0089 139.573 53.2484 139.703C53.4932 139.828 53.7927 139.891 54.1469 139.891C54.5896 139.891 54.9802 139.797 55.3187 139.609C55.6573 139.422 55.9255 139.193 56.1234 138.922C56.3266 138.651 56.4359 138.388 56.4516 138.133L57.0687 138.828C57.0323 139.047 56.9333 139.289 56.7719 139.555C56.6104 139.82 56.3943 140.076 56.1234 140.32C55.8578 140.56 55.5401 140.76 55.1703 140.922C54.8057 141.078 54.3943 141.156 53.9359 141.156C53.363 141.156 52.8604 141.044 52.4281 140.82C52.001 140.596 51.6677 140.297 51.4281 139.922C51.1937 139.542 51.0766 139.117 51.0766 138.648C51.0766 138.195 51.1651 137.797 51.3422 137.453C51.5193 137.104 51.7745 136.815 52.1078 136.586C52.4411 136.352 52.8422 136.174 53.3109 136.055C53.7797 135.935 54.3031 135.875 54.8812 135.875H56.5609ZM63.5625 139.969C63.9062 139.969 64.224 139.898 64.5156 139.758C64.8073 139.617 65.0469 139.424 65.2344 139.18C65.4219 138.93 65.5286 138.646 65.5547 138.328H66.9297C66.9036 138.828 66.7344 139.294 66.4219 139.727C66.1146 140.154 65.7109 140.5 65.2109 140.766C64.7109 141.026 64.1615 141.156 63.5625 141.156C62.9271 141.156 62.3724 141.044 61.8984 140.82C61.4297 140.596 61.0391 140.289 60.7266 139.898C60.4193 139.508 60.1875 139.06 60.0312 138.555C59.8802 138.044 59.8047 137.505 59.8047 136.938V136.609C59.8047 136.042 59.8802 135.505 60.0312 135C60.1875 134.49 60.4193 134.039 60.7266 133.648C61.0391 133.258 61.4297 132.951 61.8984 132.727C62.3724 132.503 62.9271 132.391 63.5625 132.391C64.224 132.391 64.8021 132.526 65.2969 132.797C65.7917 133.062 66.1797 133.427 66.4609 133.891C66.7474 134.349 66.9036 134.87 66.9297 135.453H65.5547C65.5286 135.104 65.4297 134.789 65.2578 134.508C65.0911 134.227 64.862 134.003 64.5703 133.836C64.2839 133.664 63.9479 133.578 63.5625 133.578C63.1198 133.578 62.7474 133.667 62.4453 133.844C62.1484 134.016 61.9115 134.25 61.7344 134.547C61.5625 134.839 61.4375 135.164 61.3594 135.523C61.2865 135.878 61.25 136.24 61.25 136.609V136.938C61.25 137.307 61.2865 137.672 61.3594 138.031C61.4323 138.391 61.5547 138.716 61.7266 139.008C61.9036 139.299 62.1406 139.534 62.4375 139.711C62.7396 139.883 63.1146 139.969 63.5625 139.969ZM72.2438 132.547V133.656H67.6734V132.547H72.2438ZM69.2203 130.492H70.6656V138.906C70.6656 139.193 70.7099 139.409 70.7984 139.555C70.887 139.701 71.0016 139.797 71.1422 139.844C71.2828 139.891 71.4339 139.914 71.5953 139.914C71.7151 139.914 71.8401 139.904 71.9703 139.883C72.1057 139.857 72.2073 139.836 72.275 139.82L72.2828 141C72.1682 141.036 72.0172 141.07 71.8297 141.102C71.6474 141.138 71.426 141.156 71.1656 141.156C70.8115 141.156 70.4859 141.086 70.1891 140.945C69.8922 140.805 69.6552 140.57 69.4781 140.242C69.3063 139.909 69.2203 139.461 69.2203 138.898V130.492Z" fill="black" fill-opacity="0.87"/>
<path d="M17.3203 177.625H21.0859C21.9401 177.625 22.6615 177.755 23.25 178.016C23.8438 178.276 24.2943 178.661 24.6016 179.172C24.9141 179.677 25.0703 180.299 25.0703 181.039C25.0703 181.56 24.9635 182.036 24.75 182.469C24.5417 182.896 24.2396 183.26 23.8438 183.562C23.4531 183.859 22.9844 184.081 22.4375 184.227L22.0156 184.391H18.4766L18.4609 183.164H21.1328C21.6745 183.164 22.125 183.07 22.4844 182.883C22.8438 182.69 23.1146 182.432 23.2969 182.109C23.4792 181.786 23.5703 181.43 23.5703 181.039C23.5703 180.602 23.4844 180.219 23.3125 179.891C23.1406 179.562 22.8698 179.31 22.5 179.133C22.1354 178.951 21.6641 178.859 21.0859 178.859H18.8281V189H17.3203V177.625ZM23.9688 189L21.2031 183.844L22.7734 183.836L25.5781 188.906V189H23.9688ZM33.3922 186.125C33.3922 185.859 33.3505 185.625 33.2672 185.422C33.1891 185.214 33.0484 185.026 32.8453 184.859C32.6474 184.693 32.3714 184.534 32.0172 184.383C31.6682 184.232 31.2255 184.078 30.6891 183.922C30.1266 183.755 29.6187 183.57 29.1656 183.367C28.7125 183.159 28.3245 182.922 28.0016 182.656C27.6786 182.391 27.4312 182.086 27.2594 181.742C27.0875 181.398 27.0016 181.005 27.0016 180.562C27.0016 180.12 27.0927 179.711 27.275 179.336C27.4573 178.961 27.7177 178.635 28.0562 178.359C28.4 178.078 28.8089 177.859 29.2828 177.703C29.7568 177.547 30.2854 177.469 30.8687 177.469C31.7229 177.469 32.4469 177.633 33.0406 177.961C33.6396 178.284 34.0953 178.708 34.4078 179.234C34.7203 179.755 34.8766 180.312 34.8766 180.906H33.3766C33.3766 180.479 33.2854 180.102 33.1031 179.773C32.9208 179.44 32.6448 179.18 32.275 178.992C31.9052 178.799 31.4365 178.703 30.8687 178.703C30.3323 178.703 29.8896 178.784 29.5406 178.945C29.1917 179.107 28.9312 179.326 28.7594 179.602C28.5927 179.878 28.5094 180.193 28.5094 180.547C28.5094 180.786 28.5589 181.005 28.6578 181.203C28.762 181.396 28.9208 181.576 29.1344 181.742C29.3531 181.909 29.6292 182.062 29.9625 182.203C30.301 182.344 30.7047 182.479 31.1734 182.609C31.8193 182.792 32.3766 182.995 32.8453 183.219C33.3141 183.443 33.6995 183.695 34.0016 183.977C34.3089 184.253 34.5354 184.568 34.6812 184.922C34.8323 185.271 34.9078 185.667 34.9078 186.109C34.9078 186.573 34.8141 186.992 34.6266 187.367C34.4391 187.742 34.1708 188.062 33.8219 188.328C33.4729 188.594 33.0536 188.799 32.5641 188.945C32.0797 189.086 31.538 189.156 30.9391 189.156C30.413 189.156 29.8948 189.083 29.3844 188.938C28.8792 188.792 28.4182 188.573 28.0016 188.281C27.5901 187.99 27.2594 187.63 27.0094 187.203C26.7646 186.771 26.6422 186.271 26.6422 185.703H28.1422C28.1422 186.094 28.2177 186.43 28.3687 186.711C28.5198 186.987 28.7255 187.216 28.9859 187.398C29.2516 187.581 29.551 187.716 29.8844 187.805C30.2229 187.888 30.5745 187.93 30.9391 187.93C31.4651 187.93 31.9104 187.857 32.275 187.711C32.6396 187.565 32.9156 187.357 33.1031 187.086C33.2958 186.815 33.3922 186.495 33.3922 186.125ZM40.6516 187.273L44.0031 177.625H45.6359L41.425 189H40.2609L40.6516 187.273ZM37.5187 177.625L40.8391 187.273L41.2531 189H40.0891L35.8859 177.625H37.5187ZM51.5125 184.539H48.4734V183.312H51.5125C52.101 183.312 52.5776 183.219 52.9422 183.031C53.3068 182.844 53.5724 182.583 53.7391 182.25C53.9109 181.917 53.9969 181.536 53.9969 181.109C53.9969 180.719 53.9109 180.352 53.7391 180.008C53.5724 179.664 53.3068 179.388 52.9422 179.18C52.5776 178.966 52.101 178.859 51.5125 178.859H48.825V189H47.3172V177.625H51.5125C52.3719 177.625 53.0984 177.773 53.6922 178.07C54.2859 178.367 54.7365 178.779 55.0438 179.305C55.351 179.826 55.5047 180.422 55.5047 181.094C55.5047 181.823 55.351 182.445 55.0438 182.961C54.7365 183.477 54.2859 183.87 53.6922 184.141C53.0984 184.406 52.3719 184.539 51.5125 184.539Z" fill="black" fill-opacity="0.87"/>
<path d="M20.9922 235.273L24.3438 225.625H25.9766L21.7656 237H20.6016L20.9922 235.273ZM17.8594 225.625L21.1797 235.273L21.5938 237H20.4297L16.2266 225.625H17.8594ZM30.6031 237.156C30.0146 237.156 29.4807 237.057 29.0016 236.859C28.5276 236.656 28.1187 236.372 27.775 236.008C27.4365 235.643 27.176 235.211 26.9937 234.711C26.8115 234.211 26.7203 233.664 26.7203 233.07V232.742C26.7203 232.055 26.8219 231.443 27.025 230.906C27.2281 230.365 27.5042 229.906 27.8531 229.531C28.2021 229.156 28.5979 228.872 29.0406 228.68C29.4833 228.487 29.9417 228.391 30.4156 228.391C31.0198 228.391 31.5406 228.495 31.9781 228.703C32.4208 228.911 32.7828 229.203 33.0641 229.578C33.3453 229.948 33.5536 230.385 33.6891 230.891C33.8245 231.391 33.8922 231.938 33.8922 232.531V233.18H27.5797V232H32.4469V231.891C32.426 231.516 32.3479 231.151 32.2125 230.797C32.0823 230.443 31.874 230.151 31.5875 229.922C31.301 229.693 30.9104 229.578 30.4156 229.578C30.0875 229.578 29.7854 229.648 29.5094 229.789C29.2333 229.924 28.9964 230.128 28.7984 230.398C28.6005 230.669 28.4469 231 28.3375 231.391C28.2281 231.781 28.1734 232.232 28.1734 232.742V233.07C28.1734 233.471 28.2281 233.849 28.3375 234.203C28.4521 234.552 28.6161 234.859 28.8297 235.125C29.0484 235.391 29.3115 235.599 29.6187 235.75C29.9312 235.901 30.2854 235.977 30.6812 235.977C31.1917 235.977 31.624 235.872 31.9781 235.664C32.3323 235.456 32.6422 235.177 32.9078 234.828L33.7828 235.523C33.6005 235.799 33.3687 236.062 33.0875 236.312C32.8062 236.562 32.4599 236.766 32.0484 236.922C31.6422 237.078 31.1604 237.156 30.6031 237.156ZM37.175 230.352V237H35.7297V228.547H37.0969L37.175 230.352ZM36.8312 232.453L36.2297 232.43C36.2349 231.852 36.3208 231.318 36.4875 230.828C36.6542 230.333 36.8885 229.904 37.1906 229.539C37.4927 229.174 37.8521 228.893 38.2687 228.695C38.6906 228.492 39.1568 228.391 39.6672 228.391C40.0839 228.391 40.4589 228.448 40.7922 228.562C41.1255 228.672 41.4094 228.849 41.6437 229.094C41.8833 229.339 42.0656 229.656 42.1906 230.047C42.3156 230.432 42.3781 230.904 42.3781 231.461V237H40.925V231.445C40.925 231.003 40.8599 230.648 40.7297 230.383C40.5995 230.112 40.4094 229.917 40.1594 229.797C39.9094 229.672 39.6021 229.609 39.2375 229.609C38.8781 229.609 38.55 229.685 38.2531 229.836C37.9615 229.987 37.7089 230.195 37.4953 230.461C37.287 230.727 37.1229 231.031 37.0031 231.375C36.8885 231.714 36.8312 232.073 36.8312 232.453ZM49.8953 235.047V228.547H51.3484V237H49.9656L49.8953 235.047ZM50.1688 233.266L50.7703 233.25C50.7703 233.812 50.7104 234.333 50.5906 234.812C50.476 235.286 50.2885 235.698 50.0281 236.047C49.7677 236.396 49.4266 236.669 49.0047 236.867C48.5828 237.06 48.0698 237.156 47.4656 237.156C47.0542 237.156 46.6766 237.096 46.3328 236.977C45.9943 236.857 45.7026 236.672 45.4578 236.422C45.213 236.172 45.0229 235.846 44.8875 235.445C44.7573 235.044 44.6922 234.562 44.6922 234V228.547H46.1375V234.016C46.1375 234.396 46.1792 234.711 46.2625 234.961C46.351 235.206 46.4682 235.401 46.6141 235.547C46.7651 235.688 46.9318 235.786 47.1141 235.844C47.3016 235.901 47.4943 235.93 47.6922 235.93C48.3068 235.93 48.7938 235.812 49.1531 235.578C49.5125 235.339 49.7703 235.018 49.9266 234.617C50.088 234.211 50.1688 233.76 50.1688 233.266ZM57.2094 237.156C56.6208 237.156 56.087 237.057 55.6078 236.859C55.1339 236.656 54.725 236.372 54.3812 236.008C54.0427 235.643 53.7823 235.211 53.6 234.711C53.4177 234.211 53.3266 233.664 53.3266 233.07V232.742C53.3266 232.055 53.4281 231.443 53.6312 230.906C53.8344 230.365 54.1104 229.906 54.4594 229.531C54.8083 229.156 55.2042 228.872 55.6469 228.68C56.0896 228.487 56.5479 228.391 57.0219 228.391C57.626 228.391 58.1469 228.495 58.5844 228.703C59.0271 228.911 59.3891 229.203 59.6703 229.578C59.9516 229.948 60.1599 230.385 60.2953 230.891C60.4307 231.391 60.4984 231.938 60.4984 232.531V233.18H54.1859V232H59.0531V231.891C59.0323 231.516 58.9542 231.151 58.8187 230.797C58.6885 230.443 58.4802 230.151 58.1937 229.922C57.9073 229.693 57.5167 229.578 57.0219 229.578C56.6937 229.578 56.3917 229.648 56.1156 229.789C55.8396 229.924 55.6026 230.128 55.4047 230.398C55.2068 230.669 55.0531 231 54.9437 231.391C54.8344 231.781 54.7797 232.232 54.7797 232.742V233.07C54.7797 233.471 54.8344 233.849 54.9437 234.203C55.0583 234.552 55.2224 234.859 55.4359 235.125C55.6547 235.391 55.9177 235.599 56.225 235.75C56.5375 235.901 56.8917 235.977 57.2875 235.977C57.7979 235.977 58.2302 235.872 58.5844 235.664C58.9385 235.456 59.2484 235.177 59.5141 234.828L60.3891 235.523C60.2068 235.799 59.975 236.062 59.6937 236.312C59.4125 236.562 59.0661 236.766 58.6547 236.922C58.2484 237.078 57.7667 237.156 57.2094 237.156Z" fill="black" fill-opacity="0.87"/>
<path d="M21.5312 274.633L17.7656 285H16.2266L20.5625 273.625H21.5547L21.5312 274.633ZM24.6875 285L20.9141 274.633L20.8906 273.625H21.8828L26.2344 285H24.6875ZM24.4922 280.789V282.023H18.1016V280.789H24.4922ZM31.0719 283.969C31.4156 283.969 31.7333 283.898 32.025 283.758C32.3167 283.617 32.5562 283.424 32.7437 283.18C32.9312 282.93 33.038 282.646 33.0641 282.328H34.4391C34.413 282.828 34.2437 283.294 33.9312 283.727C33.624 284.154 33.2203 284.5 32.7203 284.766C32.2203 285.026 31.6708 285.156 31.0719 285.156C30.4365 285.156 29.8818 285.044 29.4078 284.82C28.9391 284.596 28.5484 284.289 28.2359 283.898C27.9286 283.508 27.6969 283.06 27.5406 282.555C27.3896 282.044 27.3141 281.505 27.3141 280.938V280.609C27.3141 280.042 27.3896 279.505 27.5406 279C27.6969 278.49 27.9286 278.039 28.2359 277.648C28.5484 277.258 28.9391 276.951 29.4078 276.727C29.8818 276.503 30.4365 276.391 31.0719 276.391C31.7333 276.391 32.3115 276.526 32.8062 276.797C33.301 277.062 33.6891 277.427 33.9703 277.891C34.2568 278.349 34.413 278.87 34.4391 279.453H33.0641C33.038 279.104 32.9391 278.789 32.7672 278.508C32.6005 278.227 32.3714 278.003 32.0797 277.836C31.7932 277.664 31.4573 277.578 31.0719 277.578C30.6292 277.578 30.2568 277.667 29.9547 277.844C29.6578 278.016 29.4208 278.25 29.2437 278.547C29.0719 278.839 28.9469 279.164 28.8687 279.523C28.7958 279.878 28.7594 280.24 28.7594 280.609V280.938C28.7594 281.307 28.7958 281.672 28.8687 282.031C28.9417 282.391 29.0641 282.716 29.2359 283.008C29.413 283.299 29.65 283.534 29.9469 283.711C30.249 283.883 30.624 283.969 31.0719 283.969ZM39.5969 283.969C39.9406 283.969 40.2583 283.898 40.55 283.758C40.8417 283.617 41.0812 283.424 41.2687 283.18C41.4562 282.93 41.563 282.646 41.5891 282.328H42.9641C42.938 282.828 42.7687 283.294 42.4562 283.727C42.149 284.154 41.7453 284.5 41.2453 284.766C40.7453 285.026 40.1958 285.156 39.5969 285.156C38.9615 285.156 38.4068 285.044 37.9328 284.82C37.4641 284.596 37.0734 284.289 36.7609 283.898C36.4536 283.508 36.2219 283.06 36.0656 282.555C35.9146 282.044 35.8391 281.505 35.8391 280.938V280.609C35.8391 280.042 35.9146 279.505 36.0656 279C36.2219 278.49 36.4536 278.039 36.7609 277.648C37.0734 277.258 37.4641 276.951 37.9328 276.727C38.4068 276.503 38.9615 276.391 39.5969 276.391C40.2583 276.391 40.8365 276.526 41.3312 276.797C41.826 277.062 42.2141 277.427 42.4953 277.891C42.7818 278.349 42.938 278.87 42.9641 279.453H41.5891C41.563 279.104 41.4641 278.789 41.2922 278.508C41.1255 278.227 40.8964 278.003 40.6047 277.836C40.3182 277.664 39.9823 277.578 39.5969 277.578C39.1542 277.578 38.7818 277.667 38.4797 277.844C38.1828 278.016 37.9458 278.25 37.7687 278.547C37.5969 278.839 37.4719 279.164 37.3937 279.523C37.3208 279.878 37.2844 280.24 37.2844 280.609V280.938C37.2844 281.307 37.3208 281.672 37.3937 282.031C37.4667 282.391 37.5891 282.716 37.7609 283.008C37.938 283.299 38.175 283.534 38.4719 283.711C38.774 283.883 39.149 283.969 39.5969 283.969ZM44.3563 280.867V280.688C44.3563 280.078 44.4448 279.513 44.6219 278.992C44.799 278.466 45.0542 278.01 45.3875 277.625C45.7208 277.234 46.1245 276.932 46.5984 276.719C47.0724 276.5 47.6036 276.391 48.1922 276.391C48.7859 276.391 49.3198 276.5 49.7938 276.719C50.2729 276.932 50.6792 277.234 51.0125 277.625C51.351 278.01 51.6089 278.466 51.7859 278.992C51.963 279.513 52.0516 280.078 52.0516 280.688V280.867C52.0516 281.477 51.963 282.042 51.7859 282.562C51.6089 283.083 51.351 283.539 51.0125 283.93C50.6792 284.315 50.2755 284.617 49.8016 284.836C49.3328 285.049 48.8016 285.156 48.2078 285.156C47.6141 285.156 47.0802 285.049 46.6063 284.836C46.1323 284.617 45.726 284.315 45.3875 283.93C45.0542 283.539 44.799 283.083 44.6219 282.562C44.4448 282.042 44.3563 281.477 44.3563 280.867ZM45.8016 280.688V280.867C45.8016 281.289 45.851 281.688 45.95 282.062C46.049 282.432 46.1974 282.76 46.3953 283.047C46.5984 283.333 46.851 283.56 47.1531 283.727C47.4552 283.888 47.8068 283.969 48.2078 283.969C48.6036 283.969 48.95 283.888 49.2469 283.727C49.549 283.56 49.799 283.333 49.9969 283.047C50.1948 282.76 50.3432 282.432 50.4422 282.062C50.5464 281.688 50.5984 281.289 50.5984 280.867V280.688C50.5984 280.271 50.5464 279.878 50.4422 279.508C50.3432 279.133 50.1922 278.802 49.9891 278.516C49.7911 278.224 49.5411 277.995 49.2391 277.828C48.9422 277.661 48.5932 277.578 48.1922 277.578C47.7964 277.578 47.4474 277.661 47.1453 277.828C46.8484 277.995 46.5984 278.224 46.3953 278.516C46.1974 278.802 46.049 279.133 45.95 279.508C45.851 279.878 45.8016 280.271 45.8016 280.688ZM55.4516 278.227V285H53.9984V276.547H55.3734L55.4516 278.227ZM55.1547 280.453L54.4828 280.43C54.488 279.852 54.5635 279.318 54.7094 278.828C54.8552 278.333 55.0714 277.904 55.3578 277.539C55.6443 277.174 56.001 276.893 56.4281 276.695C56.8552 276.492 57.35 276.391 57.9125 276.391C58.3083 276.391 58.6729 276.448 59.0062 276.562C59.3396 276.672 59.6286 276.846 59.8734 277.086C60.1182 277.326 60.3083 277.633 60.4437 278.008C60.5792 278.383 60.6469 278.836 60.6469 279.367V285H59.2016V279.438C59.2016 278.995 59.126 278.641 58.975 278.375C58.8292 278.109 58.6208 277.917 58.35 277.797C58.0792 277.672 57.7615 277.609 57.3969 277.609C56.9698 277.609 56.613 277.685 56.3266 277.836C56.0401 277.987 55.8109 278.195 55.6391 278.461C55.4672 278.727 55.3422 279.031 55.2641 279.375C55.1911 279.714 55.1547 280.073 55.1547 280.453ZM60.6312 279.656L59.6625 279.953C59.6677 279.49 59.7432 279.044 59.8891 278.617C60.0401 278.19 60.2562 277.81 60.5375 277.477C60.824 277.143 61.1755 276.88 61.5922 276.688C62.0089 276.49 62.4854 276.391 63.0219 276.391C63.475 276.391 63.876 276.451 64.225 276.57C64.5792 276.69 64.876 276.875 65.1156 277.125C65.3604 277.37 65.5453 277.685 65.6703 278.07C65.7953 278.456 65.8578 278.914 65.8578 279.445V285H64.4047V279.43C64.4047 278.956 64.3292 278.589 64.1781 278.328C64.0323 278.062 63.824 277.878 63.5531 277.773C63.2875 277.664 62.9698 277.609 62.6 277.609C62.2823 277.609 62.001 277.664 61.7562 277.773C61.5115 277.883 61.3057 278.034 61.1391 278.227C60.9724 278.414 60.8448 278.63 60.7562 278.875C60.6729 279.12 60.6312 279.38 60.6312 279.656ZM69.6328 278.227V285H68.1797V276.547H69.5547L69.6328 278.227ZM69.3359 280.453L68.6641 280.43C68.6693 279.852 68.7448 279.318 68.8906 278.828C69.0365 278.333 69.2526 277.904 69.5391 277.539C69.8255 277.174 70.1823 276.893 70.6094 276.695C71.0365 276.492 71.5312 276.391 72.0938 276.391C72.4896 276.391 72.8542 276.448 73.1875 276.562C73.5208 276.672 73.8099 276.846 74.0547 277.086C74.2995 277.326 74.4896 277.633 74.625 278.008C74.7604 278.383 74.8281 278.836 74.8281 279.367V285H73.3828V279.438C73.3828 278.995 73.3073 278.641 73.1562 278.375C73.0104 278.109 72.8021 277.917 72.5312 277.797C72.2604 277.672 71.9427 277.609 71.5781 277.609C71.151 277.609 70.7943 277.685 70.5078 277.836C70.2214 277.987 69.9922 278.195 69.8203 278.461C69.6484 278.727 69.5234 279.031 69.4453 279.375C69.3724 279.714 69.3359 280.073 69.3359 280.453ZM74.8125 279.656L73.8438 279.953C73.849 279.49 73.9245 279.044 74.0703 278.617C74.2214 278.19 74.4375 277.81 74.7188 277.477C75.0052 277.143 75.3568 276.88 75.7734 276.688C76.1901 276.49 76.6667 276.391 77.2031 276.391C77.6562 276.391 78.0573 276.451 78.4062 276.57C78.7604 276.69 79.0573 276.875 79.2969 277.125C79.5417 277.37 79.7266 277.685 79.8516 278.07C79.9766 278.456 80.0391 278.914 80.0391 279.445V285H78.5859V279.43C78.5859 278.956 78.5104 278.589 78.3594 278.328C78.2135 278.062 78.0052 277.878 77.7344 277.773C77.4688 277.664 77.151 277.609 76.7812 277.609C76.4635 277.609 76.1823 277.664 75.9375 277.773C75.6927 277.883 75.487 278.034 75.3203 278.227C75.1536 278.414 75.026 278.63 74.9375 278.875C74.8542 279.12 74.8125 279.38 74.8125 279.656ZM81.9938 280.867V280.688C81.9938 280.078 82.0823 279.513 82.2594 278.992C82.4365 278.466 82.6917 278.01 83.025 277.625C83.3583 277.234 83.762 276.932 84.2359 276.719C84.7099 276.5 85.2411 276.391 85.8297 276.391C86.4234 276.391 86.9573 276.5 87.4313 276.719C87.9104 276.932 88.3167 277.234 88.65 277.625C88.9885 278.01 89.2464 278.466 89.4234 278.992C89.6005 279.513 89.6891 280.078 89.6891 280.688V280.867C89.6891 281.477 89.6005 282.042 89.4234 282.562C89.2464 283.083 88.9885 283.539 88.65 283.93C88.3167 284.315 87.913 284.617 87.4391 284.836C86.9703 285.049 86.4391 285.156 85.8453 285.156C85.2516 285.156 84.7177 285.049 84.2438 284.836C83.7698 284.617 83.3635 284.315 83.025 283.93C82.6917 283.539 82.4365 283.083 82.2594 282.562C82.0823 282.042 81.9938 281.477 81.9938 280.867ZM83.4391 280.688V280.867C83.4391 281.289 83.4885 281.688 83.5875 282.062C83.6865 282.432 83.8349 282.76 84.0328 283.047C84.2359 283.333 84.4885 283.56 84.7906 283.727C85.0927 283.888 85.4443 283.969 85.8453 283.969C86.2411 283.969 86.5875 283.888 86.8844 283.727C87.1865 283.56 87.4365 283.333 87.6344 283.047C87.8323 282.76 87.9807 282.432 88.0797 282.062C88.1839 281.688 88.2359 281.289 88.2359 280.867V280.688C88.2359 280.271 88.1839 279.878 88.0797 279.508C87.9807 279.133 87.8297 278.802 87.6266 278.516C87.4286 278.224 87.1786 277.995 86.8766 277.828C86.5797 277.661 86.2307 277.578 85.8297 277.578C85.4339 277.578 85.0849 277.661 84.7828 277.828C84.4859 277.995 84.2359 278.224 84.0328 278.516C83.8349 278.802 83.6865 279.133 83.5875 279.508C83.4885 279.878 83.4391 280.271 83.4391 280.688ZM96.9797 283.359V273H98.4328V285H97.1047L96.9797 283.359ZM91.2922 280.867V280.703C91.2922 280.057 91.3703 279.471 91.5266 278.945C91.688 278.414 91.9146 277.958 92.2063 277.578C92.5031 277.198 92.8547 276.906 93.2609 276.703C93.6724 276.495 94.1307 276.391 94.6359 276.391C95.1672 276.391 95.6307 276.484 96.0266 276.672C96.4276 276.854 96.7661 277.122 97.0422 277.477C97.3234 277.826 97.5448 278.247 97.7063 278.742C97.8677 279.237 97.9797 279.797 98.0422 280.422V281.141C97.9849 281.76 97.8729 282.318 97.7063 282.812C97.5448 283.307 97.3234 283.729 97.0422 284.078C96.7661 284.427 96.4276 284.695 96.0266 284.883C95.6255 285.065 95.1568 285.156 94.6203 285.156C94.1255 285.156 93.6724 285.049 93.2609 284.836C92.8547 284.622 92.5031 284.323 92.2063 283.938C91.9146 283.552 91.688 283.099 91.5266 282.578C91.3703 282.052 91.2922 281.482 91.2922 280.867ZM92.7453 280.703V280.867C92.7453 281.289 92.787 281.685 92.8703 282.055C92.9589 282.424 93.0943 282.75 93.2766 283.031C93.4589 283.312 93.6906 283.534 93.9719 283.695C94.2531 283.852 94.5891 283.93 94.9797 283.93C95.4589 283.93 95.8521 283.828 96.1594 283.625C96.4719 283.422 96.7219 283.154 96.9094 282.82C97.0969 282.487 97.2427 282.125 97.3469 281.734V279.852C97.2844 279.565 97.1932 279.289 97.0734 279.023C96.9589 278.753 96.8078 278.513 96.6203 278.305C96.438 278.091 96.2115 277.922 95.9406 277.797C95.675 277.672 95.3599 277.609 94.9953 277.609C94.5995 277.609 94.2583 277.693 93.9719 277.859C93.6906 278.021 93.4589 278.245 93.2766 278.531C93.0943 278.812 92.9589 279.141 92.8703 279.516C92.787 279.885 92.7453 280.281 92.7453 280.703ZM105.817 283.555V279.203C105.817 278.87 105.749 278.581 105.614 278.336C105.484 278.086 105.286 277.893 105.02 277.758C104.755 277.622 104.427 277.555 104.036 277.555C103.671 277.555 103.351 277.617 103.075 277.742C102.804 277.867 102.591 278.031 102.434 278.234C102.283 278.438 102.208 278.656 102.208 278.891H100.762C100.762 278.589 100.841 278.289 100.997 277.992C101.153 277.695 101.377 277.427 101.669 277.188C101.966 276.943 102.32 276.75 102.731 276.609C103.148 276.464 103.611 276.391 104.122 276.391C104.736 276.391 105.278 276.495 105.747 276.703C106.221 276.911 106.591 277.227 106.856 277.648C107.127 278.065 107.262 278.589 107.262 279.219V283.156C107.262 283.438 107.286 283.737 107.333 284.055C107.385 284.372 107.46 284.646 107.559 284.875V285H106.052C105.979 284.833 105.921 284.612 105.88 284.336C105.838 284.055 105.817 283.794 105.817 283.555ZM106.067 279.875L106.083 280.891H104.622C104.21 280.891 103.843 280.924 103.52 280.992C103.197 281.055 102.927 281.151 102.708 281.281C102.489 281.411 102.322 281.576 102.208 281.773C102.093 281.966 102.036 282.193 102.036 282.453C102.036 282.719 102.096 282.961 102.216 283.18C102.335 283.398 102.515 283.573 102.755 283.703C102.999 283.828 103.299 283.891 103.653 283.891C104.096 283.891 104.486 283.797 104.825 283.609C105.164 283.422 105.432 283.193 105.63 282.922C105.833 282.651 105.942 282.388 105.958 282.133L106.575 282.828C106.539 283.047 106.44 283.289 106.278 283.555C106.117 283.82 105.901 284.076 105.63 284.32C105.364 284.56 105.046 284.76 104.677 284.922C104.312 285.078 103.901 285.156 103.442 285.156C102.869 285.156 102.367 285.044 101.934 284.82C101.507 284.596 101.174 284.297 100.934 283.922C100.7 283.542 100.583 283.117 100.583 282.648C100.583 282.195 100.671 281.797 100.848 281.453C101.026 281.104 101.281 280.815 101.614 280.586C101.947 280.352 102.348 280.174 102.817 280.055C103.286 279.935 103.809 279.875 104.387 279.875H106.067ZM113.225 276.547V277.656H108.655V276.547H113.225ZM110.202 274.492H111.647V282.906C111.647 283.193 111.691 283.409 111.78 283.555C111.868 283.701 111.983 283.797 112.123 283.844C112.264 283.891 112.415 283.914 112.577 283.914C112.696 283.914 112.821 283.904 112.952 283.883C113.087 283.857 113.189 283.836 113.256 283.82L113.264 285C113.149 285.036 112.998 285.07 112.811 285.102C112.629 285.138 112.407 285.156 112.147 285.156C111.793 285.156 111.467 285.086 111.17 284.945C110.873 284.805 110.636 284.57 110.459 284.242C110.287 283.909 110.202 283.461 110.202 282.898V274.492ZM116.641 276.547V285H115.188V276.547H116.641ZM115.078 274.305C115.078 274.07 115.148 273.872 115.289 273.711C115.435 273.549 115.648 273.469 115.93 273.469C116.206 273.469 116.417 273.549 116.562 273.711C116.714 273.872 116.789 274.07 116.789 274.305C116.789 274.529 116.714 274.721 116.562 274.883C116.417 275.039 116.206 275.117 115.93 275.117C115.648 275.117 115.435 275.039 115.289 274.883C115.148 274.721 115.078 274.529 115.078 274.305ZM118.728 280.867V280.688C118.728 280.078 118.817 279.513 118.994 278.992C119.171 278.466 119.426 278.01 119.759 277.625C120.093 277.234 120.496 276.932 120.97 276.719C121.444 276.5 121.976 276.391 122.564 276.391C123.158 276.391 123.692 276.5 124.166 276.719C124.645 276.932 125.051 277.234 125.384 277.625C125.723 278.01 125.981 278.466 126.158 278.992C126.335 279.513 126.423 280.078 126.423 280.688V280.867C126.423 281.477 126.335 282.042 126.158 282.562C125.981 283.083 125.723 283.539 125.384 283.93C125.051 284.315 124.647 284.617 124.173 284.836C123.705 285.049 123.173 285.156 122.58 285.156C121.986 285.156 121.452 285.049 120.978 284.836C120.504 284.617 120.098 284.315 119.759 283.93C119.426 283.539 119.171 283.083 118.994 282.562C118.817 282.042 118.728 281.477 118.728 280.867ZM120.173 280.688V280.867C120.173 281.289 120.223 281.688 120.322 282.062C120.421 282.432 120.569 282.76 120.767 283.047C120.97 283.333 121.223 283.56 121.525 283.727C121.827 283.888 122.179 283.969 122.58 283.969C122.976 283.969 123.322 283.888 123.619 283.727C123.921 283.56 124.171 283.333 124.369 283.047C124.567 282.76 124.715 282.432 124.814 282.062C124.918 281.688 124.97 281.289 124.97 280.867V280.688C124.97 280.271 124.918 279.878 124.814 279.508C124.715 279.133 124.564 278.802 124.361 278.516C124.163 278.224 123.913 277.995 123.611 277.828C123.314 277.661 122.965 277.578 122.564 277.578C122.168 277.578 121.819 277.661 121.517 277.828C121.22 277.995 120.97 278.224 120.767 278.516C120.569 278.802 120.421 279.133 120.322 279.508C120.223 279.878 120.173 280.271 120.173 280.688ZM129.831 278.352V285H128.386V276.547H129.753L129.831 278.352ZM129.488 280.453L128.886 280.43C128.891 279.852 128.977 279.318 129.144 278.828C129.31 278.333 129.545 277.904 129.847 277.539C130.149 277.174 130.508 276.893 130.925 276.695C131.347 276.492 131.813 276.391 132.323 276.391C132.74 276.391 133.115 276.448 133.448 276.562C133.782 276.672 134.066 276.849 134.3 277.094C134.54 277.339 134.722 277.656 134.847 278.047C134.972 278.432 135.034 278.904 135.034 279.461V285H133.581V279.445C133.581 279.003 133.516 278.648 133.386 278.383C133.256 278.112 133.066 277.917 132.816 277.797C132.566 277.672 132.258 277.609 131.894 277.609C131.534 277.609 131.206 277.685 130.909 277.836C130.618 277.987 130.365 278.195 130.152 278.461C129.943 278.727 129.779 279.031 129.659 279.375C129.545 279.714 129.488 280.073 129.488 280.453ZM142.302 282.758C142.302 282.549 142.255 282.357 142.161 282.18C142.072 281.997 141.887 281.833 141.606 281.688C141.33 281.536 140.914 281.406 140.356 281.297C139.887 281.198 139.463 281.081 139.083 280.945C138.708 280.81 138.387 280.646 138.122 280.453C137.861 280.26 137.661 280.034 137.52 279.773C137.38 279.513 137.309 279.208 137.309 278.859C137.309 278.526 137.382 278.211 137.528 277.914C137.679 277.617 137.89 277.354 138.161 277.125C138.437 276.896 138.768 276.716 139.153 276.586C139.539 276.456 139.968 276.391 140.442 276.391C141.119 276.391 141.697 276.51 142.177 276.75C142.656 276.99 143.023 277.31 143.278 277.711C143.533 278.107 143.661 278.547 143.661 279.031H142.216C142.216 278.797 142.145 278.57 142.005 278.352C141.869 278.128 141.669 277.943 141.403 277.797C141.143 277.651 140.822 277.578 140.442 277.578C140.041 277.578 139.716 277.641 139.466 277.766C139.221 277.885 139.041 278.039 138.927 278.227C138.817 278.414 138.762 278.612 138.762 278.82C138.762 278.977 138.789 279.117 138.841 279.242C138.898 279.362 138.997 279.474 139.137 279.578C139.278 279.677 139.476 279.771 139.731 279.859C139.986 279.948 140.312 280.036 140.708 280.125C141.401 280.281 141.971 280.469 142.419 280.688C142.867 280.906 143.2 281.174 143.419 281.492C143.637 281.81 143.747 282.195 143.747 282.648C143.747 283.018 143.669 283.357 143.512 283.664C143.361 283.971 143.14 284.237 142.848 284.461C142.562 284.68 142.218 284.852 141.817 284.977C141.421 285.096 140.976 285.156 140.481 285.156C139.736 285.156 139.106 285.023 138.591 284.758C138.075 284.492 137.684 284.148 137.419 283.727C137.153 283.305 137.02 282.859 137.02 282.391H138.473C138.494 282.786 138.609 283.102 138.817 283.336C139.026 283.565 139.281 283.729 139.583 283.828C139.885 283.922 140.184 283.969 140.481 283.969C140.877 283.969 141.208 283.917 141.473 283.812C141.744 283.708 141.95 283.565 142.091 283.383C142.231 283.201 142.302 282.992 142.302 282.758Z" fill="black" fill-opacity="0.87"/>
<path d="M17.3203 321.625H21.0859C21.9401 321.625 22.6615 321.755 23.25 322.016C23.8438 322.276 24.2943 322.661 24.6016 323.172C24.9141 323.677 25.0703 324.299 25.0703 325.039C25.0703 325.56 24.9635 326.036 24.75 326.469C24.5417 326.896 24.2396 327.26 23.8438 327.562C23.4531 327.859 22.9844 328.081 22.4375 328.227L22.0156 328.391H18.4766L18.4609 327.164H21.1328C21.6745 327.164 22.125 327.07 22.4844 326.883C22.8438 326.69 23.1146 326.432 23.2969 326.109C23.4792 325.786 23.5703 325.43 23.5703 325.039C23.5703 324.602 23.4844 324.219 23.3125 323.891C23.1406 323.562 22.8698 323.31 22.5 323.133C22.1354 322.951 21.6641 322.859 21.0859 322.859H18.8281V333H17.3203V321.625ZM23.9688 333L21.2031 327.844L22.7734 327.836L25.5781 332.906V333H23.9688ZM30.6187 333.156C30.0302 333.156 29.4964 333.057 29.0172 332.859C28.5432 332.656 28.1344 332.372 27.7906 332.008C27.4521 331.643 27.1917 331.211 27.0094 330.711C26.8271 330.211 26.7359 329.664 26.7359 329.07V328.742C26.7359 328.055 26.8375 327.443 27.0406 326.906C27.2437 326.365 27.5198 325.906 27.8687 325.531C28.2177 325.156 28.6135 324.872 29.0562 324.68C29.499 324.487 29.9573 324.391 30.4312 324.391C31.0354 324.391 31.5562 324.495 31.9937 324.703C32.4365 324.911 32.7984 325.203 33.0797 325.578C33.3609 325.948 33.5693 326.385 33.7047 326.891C33.8401 327.391 33.9078 327.938 33.9078 328.531V329.18H27.5953V328H32.4625V327.891C32.4417 327.516 32.3635 327.151 32.2281 326.797C32.0979 326.443 31.8896 326.151 31.6031 325.922C31.3167 325.693 30.926 325.578 30.4312 325.578C30.1031 325.578 29.801 325.648 29.525 325.789C29.249 325.924 29.012 326.128 28.8141 326.398C28.6161 326.669 28.4625 327 28.3531 327.391C28.2437 327.781 28.1891 328.232 28.1891 328.742V329.07C28.1891 329.471 28.2437 329.849 28.3531 330.203C28.4677 330.552 28.6318 330.859 28.8453 331.125C29.0641 331.391 29.3271 331.599 29.6344 331.75C29.9469 331.901 30.301 331.977 30.6969 331.977C31.2073 331.977 31.6396 331.872 31.9937 331.664C32.3479 331.456 32.6578 331.177 32.9234 330.828L33.7984 331.523C33.6161 331.799 33.3844 332.062 33.1031 332.312C32.8219 332.562 32.4755 332.766 32.0641 332.922C31.6578 333.078 31.176 333.156 30.6187 333.156ZM41.2219 324.547H42.5344V332.82C42.5344 333.565 42.3833 334.201 42.0812 334.727C41.7792 335.253 41.3573 335.651 40.8156 335.922C40.2792 336.198 39.6594 336.336 38.9562 336.336C38.6646 336.336 38.3208 336.289 37.925 336.195C37.5344 336.107 37.149 335.953 36.7687 335.734C36.3937 335.521 36.0786 335.232 35.8234 334.867L36.5812 334.008C36.9354 334.435 37.3052 334.732 37.6906 334.898C38.0812 335.065 38.4667 335.148 38.8469 335.148C39.3052 335.148 39.701 335.062 40.0344 334.891C40.3677 334.719 40.6255 334.464 40.8078 334.125C40.9953 333.792 41.0891 333.38 41.0891 332.891V326.406L41.2219 324.547ZM35.4016 328.867V328.703C35.4016 328.057 35.4771 327.471 35.6281 326.945C35.7844 326.414 36.0057 325.958 36.2922 325.578C36.5839 325.198 36.9354 324.906 37.3469 324.703C37.7583 324.495 38.2219 324.391 38.7375 324.391C39.2687 324.391 39.7323 324.484 40.1281 324.672C40.5292 324.854 40.8677 325.122 41.1437 325.477C41.425 325.826 41.6464 326.247 41.8078 326.742C41.9693 327.237 42.0812 327.797 42.1437 328.422V329.141C42.0865 329.76 41.9745 330.318 41.8078 330.812C41.6464 331.307 41.425 331.729 41.1437 332.078C40.8677 332.427 40.5292 332.695 40.1281 332.883C39.7271 333.065 39.2583 333.156 38.7219 333.156C38.2167 333.156 37.7583 333.049 37.3469 332.836C36.9406 332.622 36.5917 332.323 36.3 331.938C36.0083 331.552 35.7844 331.099 35.6281 330.578C35.4771 330.052 35.4016 329.482 35.4016 328.867ZM36.8469 328.703V328.867C36.8469 329.289 36.8885 329.685 36.9719 330.055C37.0604 330.424 37.1932 330.75 37.3703 331.031C37.5526 331.312 37.7844 331.534 38.0656 331.695C38.3469 331.852 38.6828 331.93 39.0734 331.93C39.5526 331.93 39.9484 331.828 40.2609 331.625C40.5734 331.422 40.8208 331.154 41.0031 330.82C41.1906 330.487 41.3365 330.125 41.4406 329.734V327.852C41.3833 327.565 41.2948 327.289 41.175 327.023C41.0604 326.753 40.9094 326.513 40.7219 326.305C40.5396 326.091 40.313 325.922 40.0422 325.797C39.7714 325.672 39.4536 325.609 39.0891 325.609C38.6932 325.609 38.3521 325.693 38.0656 325.859C37.7844 326.021 37.5526 326.245 37.3703 326.531C37.1932 326.812 37.0604 327.141 36.9719 327.516C36.8885 327.885 36.8469 328.281 36.8469 328.703ZM46.45 324.547V333H44.9969V324.547H46.45ZM44.8875 322.305C44.8875 322.07 44.9578 321.872 45.0984 321.711C45.2443 321.549 45.4578 321.469 45.7391 321.469C46.0151 321.469 46.226 321.549 46.3719 321.711C46.5229 321.872 46.5984 322.07 46.5984 322.305C46.5984 322.529 46.5229 322.721 46.3719 322.883C46.226 323.039 46.0151 323.117 45.7391 323.117C45.4578 323.117 45.2443 323.039 45.0984 322.883C44.9578 322.721 44.8875 322.529 44.8875 322.305ZM53.8422 330.758C53.8422 330.549 53.7953 330.357 53.7016 330.18C53.613 329.997 53.4281 329.833 53.1469 329.688C52.8708 329.536 52.4542 329.406 51.8969 329.297C51.4281 329.198 51.0036 329.081 50.6234 328.945C50.2484 328.81 49.9281 328.646 49.6625 328.453C49.4021 328.26 49.2016 328.034 49.0609 327.773C48.9203 327.513 48.85 327.208 48.85 326.859C48.85 326.526 48.9229 326.211 49.0688 325.914C49.2198 325.617 49.4307 325.354 49.7016 325.125C49.9776 324.896 50.3083 324.716 50.6938 324.586C51.0792 324.456 51.5089 324.391 51.9828 324.391C52.6599 324.391 53.238 324.51 53.7172 324.75C54.1964 324.99 54.5635 325.31 54.8188 325.711C55.074 326.107 55.2016 326.547 55.2016 327.031H53.7563C53.7563 326.797 53.6859 326.57 53.5453 326.352C53.4099 326.128 53.2094 325.943 52.9438 325.797C52.6833 325.651 52.363 325.578 51.9828 325.578C51.5818 325.578 51.2563 325.641 51.0063 325.766C50.7615 325.885 50.5818 326.039 50.4672 326.227C50.3578 326.414 50.3031 326.612 50.3031 326.82C50.3031 326.977 50.3292 327.117 50.3813 327.242C50.4385 327.362 50.5375 327.474 50.6781 327.578C50.8188 327.677 51.0167 327.771 51.2719 327.859C51.5271 327.948 51.8526 328.036 52.2484 328.125C52.9411 328.281 53.5115 328.469 53.9594 328.688C54.4073 328.906 54.7406 329.174 54.9594 329.492C55.1781 329.81 55.2875 330.195 55.2875 330.648C55.2875 331.018 55.2094 331.357 55.0531 331.664C54.9021 331.971 54.6807 332.237 54.3891 332.461C54.1026 332.68 53.7589 332.852 53.3578 332.977C52.962 333.096 52.5167 333.156 52.0219 333.156C51.2771 333.156 50.6469 333.023 50.1313 332.758C49.6156 332.492 49.225 332.148 48.9594 331.727C48.6938 331.305 48.5609 330.859 48.5609 330.391H50.0141C50.0349 330.786 50.1495 331.102 50.3578 331.336C50.5661 331.565 50.8214 331.729 51.1234 331.828C51.4255 331.922 51.725 331.969 52.0219 331.969C52.4177 331.969 52.7484 331.917 53.0141 331.812C53.2849 331.708 53.4906 331.565 53.6313 331.383C53.7719 331.201 53.8422 330.992 53.8422 330.758ZM60.875 324.547V325.656H56.3047V324.547H60.875ZM57.8516 322.492H59.2969V330.906C59.2969 331.193 59.3411 331.409 59.4297 331.555C59.5182 331.701 59.6328 331.797 59.7734 331.844C59.9141 331.891 60.0651 331.914 60.2266 331.914C60.3464 331.914 60.4714 331.904 60.6016 331.883C60.737 331.857 60.8385 331.836 60.9062 331.82L60.9141 333C60.7995 333.036 60.6484 333.07 60.4609 333.102C60.2786 333.138 60.0573 333.156 59.7969 333.156C59.4427 333.156 59.1172 333.086 58.8203 332.945C58.5234 332.805 58.2865 332.57 58.1094 332.242C57.9375 331.909 57.8516 331.461 57.8516 330.898V322.492ZM64.1656 325.875V333H62.7203V324.547H64.1266L64.1656 325.875ZM66.8063 324.5L66.7984 325.844C66.6786 325.818 66.5641 325.802 66.4547 325.797C66.3505 325.786 66.2307 325.781 66.0953 325.781C65.762 325.781 65.4677 325.833 65.2125 325.938C64.9573 326.042 64.7411 326.188 64.5641 326.375C64.387 326.562 64.2464 326.786 64.1422 327.047C64.0432 327.302 63.9781 327.583 63.9469 327.891L63.5406 328.125C63.5406 327.615 63.5901 327.135 63.6891 326.688C63.7932 326.24 63.9521 325.844 64.1656 325.5C64.3792 325.151 64.65 324.88 64.9781 324.688C65.3115 324.49 65.7073 324.391 66.1656 324.391C66.2698 324.391 66.3896 324.404 66.525 324.43C66.6604 324.451 66.7542 324.474 66.8063 324.5ZM70.8078 332.125L73.1594 324.547H74.7062L71.3156 334.305C71.2375 334.513 71.1333 334.737 71.0031 334.977C70.8781 335.221 70.7167 335.453 70.5187 335.672C70.3208 335.891 70.0812 336.068 69.8 336.203C69.524 336.344 69.1932 336.414 68.8078 336.414C68.6932 336.414 68.5474 336.398 68.3703 336.367C68.1932 336.336 68.0682 336.31 67.9953 336.289L67.9875 335.117C68.0292 335.122 68.0943 335.128 68.1828 335.133C68.2766 335.143 68.3417 335.148 68.3781 335.148C68.7062 335.148 68.9849 335.104 69.2141 335.016C69.4432 334.932 69.6359 334.789 69.7922 334.586C69.9536 334.388 70.0917 334.115 70.2062 333.766L70.8078 332.125ZM69.0812 324.547L71.2766 331.109L71.6516 332.633L70.6125 333.164L67.5031 324.547H69.0812Z" fill="black" fill-opacity="0.87"/>
</g>
<g clip-path="url(#clip1_13_38271)" filter="url(#filter1_ddd_13_38271)">
<rect width="559" height="64" fill="#2196F3"/>
<path d="M35 38H53V36H35V38ZM35 33H53V31H35V33ZM35 26V28H53V26H35Z" fill="white"/>
<g clip-path="url(#clip2_13_38271)">
<path d="M85.5762 39H82.5391L82.5586 37.0566H85.5762C86.4551 37.0566 87.1908 36.8646 87.7832 36.4805C88.3822 36.0964 88.8314 35.5462 89.1309 34.8301C89.4368 34.1139 89.5898 33.2611 89.5898 32.2715V31.5C89.5898 30.7318 89.502 30.0514 89.3262 29.459C89.1569 28.8665 88.903 28.3685 88.5645 27.9648C88.2324 27.5612 87.8223 27.2552 87.334 27.0469C86.8522 26.8385 86.2956 26.7344 85.6641 26.7344H82.4805V24.7812H85.6641C86.6081 24.7812 87.4707 24.9408 88.252 25.2598C89.0332 25.5723 89.707 26.0247 90.2734 26.6172C90.8464 27.2096 91.2858 27.9193 91.5918 28.7461C91.8978 29.5729 92.0508 30.4974 92.0508 31.5195V32.2715C92.0508 33.2936 91.8978 34.2181 91.5918 35.0449C91.2858 35.8717 90.8464 36.5814 90.2734 37.1738C89.7005 37.7598 89.0169 38.2122 88.2227 38.5312C87.4349 38.8438 86.5527 39 85.5762 39ZM83.8965 24.7812V39H81.4453V24.7812H83.8965ZM97.4937 37.8477L100.365 28.4336H102.884L98.6461 40.6113C98.5484 40.8717 98.4215 41.1549 98.2652 41.4609C98.109 41.7669 97.9039 42.0566 97.65 42.3301C97.4026 42.61 97.0934 42.8346 96.7223 43.0039C96.3512 43.1797 95.902 43.2676 95.3746 43.2676C95.1663 43.2676 94.9645 43.248 94.7691 43.209C94.5803 43.1764 94.4013 43.1406 94.232 43.1016L94.2223 41.3047C94.2874 41.3112 94.3655 41.3177 94.4566 41.3242C94.5543 41.3307 94.6324 41.334 94.691 41.334C95.0816 41.334 95.4072 41.2852 95.6676 41.1875C95.928 41.0964 96.1396 40.9466 96.3023 40.7383C96.4716 40.5299 96.6148 40.25 96.732 39.8984L97.4937 37.8477ZM95.8727 28.4336L98.3824 36.3438L98.8023 38.8242L97.1715 39.2441L93.3336 28.4336H95.8727ZM106.902 24V39H104.538V24H106.902ZM115.587 36.8809V31.8418C115.587 31.4642 115.518 31.1387 115.382 30.8652C115.245 30.5918 115.037 30.3802 114.757 30.2305C114.483 30.0807 114.138 30.0059 113.721 30.0059C113.337 30.0059 113.005 30.071 112.725 30.2012C112.445 30.3314 112.227 30.5072 112.071 30.7285C111.915 30.9499 111.837 31.2005 111.837 31.4805H109.493C109.493 31.0638 109.594 30.6602 109.796 30.2695C109.998 29.8789 110.29 29.5306 110.675 29.2246C111.059 28.9186 111.518 28.6777 112.052 28.502C112.585 28.3262 113.184 28.2383 113.848 28.2383C114.643 28.2383 115.346 28.3717 115.958 28.6387C116.576 28.9056 117.061 29.3092 117.413 29.8496C117.771 30.3835 117.95 31.054 117.95 31.8613V36.5586C117.95 37.0404 117.983 37.4733 118.048 37.8574C118.119 38.235 118.22 38.5638 118.35 38.8438V39H115.938C115.828 38.7461 115.74 38.4238 115.675 38.0332C115.616 37.6361 115.587 37.252 115.587 36.8809ZM115.929 32.5742L115.948 34.0293H114.259C113.822 34.0293 113.438 34.0716 113.106 34.1562C112.774 34.2344 112.498 34.3516 112.276 34.5078C112.055 34.6641 111.889 34.8529 111.778 35.0742C111.667 35.2956 111.612 35.5462 111.612 35.8262C111.612 36.1061 111.677 36.3633 111.807 36.5977C111.938 36.8255 112.126 37.0046 112.374 37.1348C112.628 37.265 112.934 37.3301 113.292 37.3301C113.774 37.3301 114.193 37.2324 114.552 37.0371C114.916 36.8353 115.203 36.5911 115.411 36.3047C115.619 36.0117 115.73 35.735 115.743 35.4746L116.505 36.5195C116.427 36.7865 116.293 37.0729 116.104 37.3789C115.915 37.6849 115.668 37.9779 115.362 38.2578C115.063 38.5312 114.701 38.7559 114.278 38.9316C113.861 39.1074 113.38 39.1953 112.833 39.1953C112.143 39.1953 111.527 39.0586 110.987 38.7852C110.447 38.5052 110.024 38.1309 109.718 37.6621C109.412 37.1868 109.259 36.6497 109.259 36.0508C109.259 35.4909 109.363 34.9961 109.571 34.5664C109.786 34.1302 110.098 33.7656 110.509 33.4727C110.925 33.1797 111.433 32.9583 112.032 32.8086C112.631 32.6523 113.315 32.5742 114.083 32.5742H115.929ZM122.895 30.6895V39H120.541V28.4336H122.758L122.895 30.6895ZM122.475 33.3262L121.713 33.3164C121.72 32.5677 121.824 31.8809 122.026 31.2559C122.234 30.6309 122.521 30.0938 122.885 29.6445C123.256 29.1953 123.699 28.8503 124.213 28.6094C124.728 28.362 125.301 28.2383 125.932 28.2383C126.44 28.2383 126.899 28.3099 127.309 28.4531C127.726 28.5898 128.08 28.8145 128.373 29.127C128.673 29.4395 128.901 29.8464 129.057 30.3477C129.213 30.8424 129.291 31.4512 129.291 32.1738V39H126.928V32.1641C126.928 31.6562 126.853 31.2559 126.704 30.9629C126.56 30.6634 126.349 30.4518 126.069 30.3281C125.795 30.1979 125.454 30.1328 125.043 30.1328C124.64 30.1328 124.278 30.2174 123.959 30.3867C123.64 30.556 123.37 30.7871 123.149 31.0801C122.934 31.373 122.768 31.7116 122.651 32.0957C122.534 32.4798 122.475 32.89 122.475 33.3262ZM139.406 31.2656L141.857 29.6152C142.267 29.3418 142.56 29.0749 142.736 28.8145C142.912 28.5475 143 28.2155 143 27.8184C143 27.4798 142.869 27.1673 142.609 26.8809C142.349 26.5944 141.981 26.4512 141.505 26.4512C141.173 26.4512 140.893 26.5293 140.666 26.6855C140.438 26.8353 140.265 27.0371 140.148 27.291C140.037 27.5384 139.982 27.8151 139.982 28.1211C139.982 28.4141 140.057 28.7168 140.207 29.0293C140.356 29.3353 140.561 29.6576 140.822 29.9961C141.082 30.3281 141.375 30.6862 141.701 31.0703L148.42 39H145.695L140.207 32.5449C139.731 31.972 139.311 31.4479 138.947 30.9727C138.582 30.4909 138.299 30.0254 138.097 29.5762C137.895 29.1204 137.795 28.6517 137.795 28.1699C137.795 27.4277 137.948 26.7897 138.254 26.2559C138.56 25.722 138.992 25.3118 139.552 25.0254C140.112 24.7324 140.767 24.5859 141.515 24.5859C142.238 24.5859 142.86 24.7324 143.38 25.0254C143.908 25.3118 144.311 25.6927 144.591 26.168C144.878 26.6432 145.021 27.1641 145.021 27.7305C145.021 28.1797 144.94 28.5898 144.777 28.9609C144.614 29.332 144.39 29.6706 144.103 29.9766C143.817 30.2826 143.485 30.5723 143.107 30.8457L140.129 33.0137C139.783 33.2936 139.526 33.5638 139.357 33.8242C139.194 34.0781 139.087 34.3125 139.035 34.5273C138.983 34.7422 138.957 34.931 138.957 35.0938C138.957 35.5104 139.045 35.888 139.22 36.2266C139.403 36.5651 139.666 36.8353 140.011 37.0371C140.363 37.2324 140.789 37.3301 141.291 37.3301C141.831 37.3301 142.355 37.2096 142.863 36.9688C143.371 36.7214 143.826 36.373 144.23 35.9238C144.634 35.4746 144.953 34.9375 145.187 34.3125C145.428 33.6875 145.548 32.9941 145.548 32.2324H147.58C147.58 32.9225 147.511 33.5768 147.375 34.1953C147.244 34.8138 147.033 35.3867 146.74 35.9141C146.453 36.4414 146.076 36.9134 145.607 37.3301C145.561 37.3757 145.509 37.4342 145.451 37.5059C145.399 37.571 145.347 37.6263 145.295 37.6719C144.735 38.1862 144.106 38.5703 143.41 38.8242C142.72 39.0716 141.984 39.1953 141.203 39.1953C140.259 39.1953 139.442 39.0228 138.752 38.6777C138.061 38.3327 137.528 37.8574 137.15 37.252C136.779 36.6465 136.593 35.9531 136.593 35.1719C136.593 34.5924 136.714 34.0846 136.955 33.6484C137.196 33.2057 137.524 32.7956 137.941 32.418C138.364 32.0339 138.852 31.6497 139.406 31.2656ZM156.317 24.7812H158.505L162.616 35.748L166.718 24.7812H168.905L163.475 39H161.737L156.317 24.7812ZM155.321 24.7812H157.401L157.762 34.2734V39H155.321V24.7812ZM167.821 24.7812H169.911V39H167.46V34.2734L167.821 24.7812ZM175.256 28.4336V39H172.893V28.4336H175.256ZM172.737 25.6602C172.737 25.3021 172.854 25.0059 173.088 24.7715C173.329 24.5306 173.661 24.4102 174.084 24.4102C174.501 24.4102 174.83 24.5306 175.071 24.7715C175.312 25.0059 175.432 25.3021 175.432 25.6602C175.432 26.0117 175.312 26.3047 175.071 26.5391C174.83 26.7734 174.501 26.8906 174.084 26.8906C173.661 26.8906 173.329 26.7734 173.088 26.5391C172.854 26.3047 172.737 26.0117 172.737 25.6602ZM183.941 36.8809V31.8418C183.941 31.4642 183.873 31.1387 183.736 30.8652C183.6 30.5918 183.391 30.3802 183.111 30.2305C182.838 30.0807 182.493 30.0059 182.076 30.0059C181.692 30.0059 181.36 30.071 181.08 30.2012C180.8 30.3314 180.582 30.5072 180.426 30.7285C180.27 30.9499 180.191 31.2005 180.191 31.4805H177.848C177.848 31.0638 177.949 30.6602 178.15 30.2695C178.352 29.8789 178.645 29.5306 179.029 29.2246C179.413 28.9186 179.872 28.6777 180.406 28.502C180.94 28.3262 181.539 28.2383 182.203 28.2383C182.997 28.2383 183.701 28.3717 184.312 28.6387C184.931 28.9056 185.416 29.3092 185.768 29.8496C186.126 30.3835 186.305 31.054 186.305 31.8613V36.5586C186.305 37.0404 186.337 37.4733 186.402 37.8574C186.474 38.235 186.575 38.5638 186.705 38.8438V39H184.293C184.182 38.7461 184.094 38.4238 184.029 38.0332C183.971 37.6361 183.941 37.252 183.941 36.8809ZM184.283 32.5742L184.303 34.0293H182.613C182.177 34.0293 181.793 34.0716 181.461 34.1562C181.129 34.2344 180.852 34.3516 180.631 34.5078C180.41 34.6641 180.243 34.8529 180.133 35.0742C180.022 35.2956 179.967 35.5462 179.967 35.8262C179.967 36.1061 180.032 36.3633 180.162 36.5977C180.292 36.8255 180.481 37.0046 180.729 37.1348C180.982 37.265 181.288 37.3301 181.646 37.3301C182.128 37.3301 182.548 37.2324 182.906 37.0371C183.271 36.8353 183.557 36.5911 183.766 36.3047C183.974 36.0117 184.085 35.735 184.098 35.4746L184.859 36.5195C184.781 36.7865 184.648 37.0729 184.459 37.3789C184.27 37.6849 184.023 37.9779 183.717 38.2578C183.417 38.5312 183.056 38.7559 182.633 38.9316C182.216 39.1074 181.734 39.1953 181.188 39.1953C180.497 39.1953 179.882 39.0586 179.342 38.7852C178.801 38.5052 178.378 38.1309 178.072 37.6621C177.766 37.1868 177.613 36.6497 177.613 36.0508C177.613 35.4909 177.717 34.9961 177.926 34.5664C178.141 34.1302 178.453 33.7656 178.863 33.4727C179.28 33.1797 179.788 32.9583 180.387 32.8086C180.986 32.6523 181.669 32.5742 182.438 32.5742H184.283ZM190.664 24V25.377C190.664 25.7871 190.589 26.2135 190.439 26.6562C190.296 27.0924 190.094 27.5124 189.834 27.916C189.573 28.3132 189.274 28.6582 188.935 28.9512L187.754 28.209C188.02 27.8053 188.235 27.3789 188.398 26.9297C188.567 26.474 188.652 25.9629 188.652 25.3965V24H190.664ZM197.298 36.1387C197.298 35.9043 197.239 35.6927 197.122 35.5039C197.005 35.3086 196.78 35.1328 196.448 34.9766C196.123 34.8203 195.641 34.6771 195.003 34.5469C194.443 34.4232 193.929 34.2767 193.46 34.1074C192.998 33.9316 192.601 33.7201 192.269 33.4727C191.937 33.2253 191.68 32.9323 191.497 32.5938C191.315 32.2552 191.224 31.8646 191.224 31.4219C191.224 30.9922 191.318 30.5853 191.507 30.2012C191.696 29.8171 191.966 29.4785 192.318 29.1855C192.669 28.8926 193.096 28.6615 193.597 28.4922C194.105 28.3229 194.671 28.2383 195.296 28.2383C196.182 28.2383 196.94 28.388 197.571 28.6875C198.21 28.9805 198.698 29.3809 199.036 29.8887C199.375 30.39 199.544 30.9564 199.544 31.5879H197.191C197.191 31.3079 197.119 31.0475 196.976 30.8066C196.839 30.5592 196.631 30.3607 196.351 30.2109C196.071 30.0547 195.719 29.9766 195.296 29.9766C194.892 29.9766 194.557 30.0417 194.29 30.1719C194.03 30.2956 193.835 30.4583 193.704 30.6602C193.581 30.862 193.519 31.0833 193.519 31.3242C193.519 31.5 193.551 31.6595 193.616 31.8027C193.688 31.9395 193.805 32.0664 193.968 32.1836C194.131 32.2943 194.352 32.3984 194.632 32.4961C194.918 32.5938 195.277 32.6882 195.706 32.7793C196.514 32.9486 197.207 33.1667 197.786 33.4336C198.372 33.694 198.821 34.0326 199.134 34.4492C199.446 34.8594 199.603 35.3802 199.603 36.0117C199.603 36.4805 199.502 36.9102 199.3 37.3008C199.105 37.6849 198.818 38.0202 198.441 38.3066C198.063 38.5866 197.611 38.8047 197.083 38.9609C196.562 39.1172 195.976 39.1953 195.325 39.1953C194.368 39.1953 193.558 39.026 192.894 38.6875C192.23 38.3424 191.725 37.903 191.38 37.3691C191.042 36.8288 190.872 36.2689 190.872 35.6895H193.148C193.174 36.1257 193.294 36.474 193.509 36.7344C193.73 36.9883 194.004 37.1738 194.329 37.291C194.661 37.4017 195.003 37.457 195.355 37.457C195.778 37.457 196.133 37.4017 196.419 37.291C196.706 37.1738 196.924 37.0176 197.073 36.8223C197.223 36.6204 197.298 36.3926 197.298 36.1387ZM210.743 35.8066L213.575 24.7812H215.059L214.893 27.623L211.866 39H210.323L210.743 35.8066ZM208.623 24.7812L210.918 35.7188L211.123 39H209.483L206.192 24.7812H208.623ZM218.272 35.6895L220.537 24.7812H222.979L219.688 39H218.047L218.272 35.6895ZM215.635 24.7812L218.438 35.8359L218.848 39H217.305L214.327 27.623L214.17 24.7812H215.635ZM229.057 39.1953C228.275 39.1953 227.569 39.0684 226.938 38.8145C226.312 38.554 225.779 38.1927 225.336 37.7305C224.9 37.2682 224.564 36.7246 224.33 36.0996C224.096 35.4746 223.979 34.8008 223.979 34.0781V33.6875C223.979 32.8607 224.099 32.112 224.34 31.4414C224.581 30.7708 224.916 30.1979 225.346 29.7227C225.775 29.2409 226.283 28.873 226.869 28.6191C227.455 28.3652 228.09 28.2383 228.773 28.2383C229.529 28.2383 230.189 28.3652 230.756 28.6191C231.322 28.873 231.791 29.2311 232.162 29.6934C232.54 30.1491 232.82 30.6927 233.002 31.3242C233.191 31.9557 233.285 32.6523 233.285 33.4141V34.4199H225.121V32.7305H230.961V32.5449C230.948 32.1217 230.863 31.7246 230.707 31.3535C230.557 30.9824 230.326 30.6829 230.014 30.4551C229.701 30.2272 229.285 30.1133 228.764 30.1133C228.373 30.1133 228.025 30.1979 227.719 30.3672C227.419 30.5299 227.169 30.7676 226.967 31.0801C226.765 31.3926 226.609 31.7702 226.498 32.2129C226.394 32.6491 226.342 33.1406 226.342 33.6875V34.0781C226.342 34.5404 226.404 34.9701 226.527 35.3672C226.658 35.7578 226.846 36.0996 227.094 36.3926C227.341 36.6855 227.641 36.9167 227.992 37.0859C228.344 37.2487 228.744 37.3301 229.193 37.3301C229.76 37.3301 230.264 37.2161 230.707 36.9883C231.15 36.7604 231.534 36.4382 231.859 36.0215L233.1 37.2227C232.872 37.5547 232.576 37.8737 232.211 38.1797C231.846 38.4792 231.4 38.7233 230.873 38.9121C230.352 39.1009 229.747 39.1953 229.057 39.1953ZM241.716 36.8125V24H244.08V39H241.941L241.716 36.8125ZM234.841 33.834V33.6289C234.841 32.8281 234.936 32.099 235.125 31.4414C235.313 30.7773 235.587 30.2077 235.945 29.7324C236.303 29.2507 236.739 28.8828 237.254 28.6289C237.768 28.3685 238.347 28.2383 238.992 28.2383C239.63 28.2383 240.19 28.362 240.671 28.6094C241.153 28.8568 241.563 29.2116 241.902 29.6738C242.24 30.1296 242.511 30.6764 242.712 31.3145C242.914 31.946 243.058 32.6491 243.142 33.4238V34.0781C243.058 34.8333 242.914 35.5234 242.712 36.1484C242.511 36.7734 242.24 37.3138 241.902 37.7695C241.563 38.2253 241.15 38.5768 240.662 38.8242C240.18 39.0716 239.617 39.1953 238.972 39.1953C238.334 39.1953 237.758 39.0618 237.244 38.7949C236.736 38.528 236.303 38.1536 235.945 37.6719C235.587 37.1901 235.313 36.6237 235.125 35.9727C234.936 35.3151 234.841 34.6022 234.841 33.834ZM237.195 33.6289V33.834C237.195 34.3158 237.237 34.765 237.322 35.1816C237.413 35.5983 237.553 35.9661 237.742 36.2852C237.931 36.5977 238.175 36.8451 238.474 37.0273C238.78 37.2031 239.145 37.291 239.568 37.291C240.102 37.291 240.541 37.1738 240.886 36.9395C241.231 36.7051 241.502 36.3893 241.697 35.9922C241.899 35.5885 242.035 35.1393 242.107 34.6445V32.877C242.068 32.4928 241.987 32.1348 241.863 31.8027C241.746 31.4707 241.586 31.181 241.384 30.9336C241.183 30.6797 240.932 30.4844 240.632 30.3477C240.339 30.2044 239.991 30.1328 239.587 30.1328C239.158 30.1328 238.793 30.224 238.494 30.4062C238.194 30.5885 237.947 30.8392 237.752 31.1582C237.563 31.4772 237.423 31.8483 237.332 32.2715C237.24 32.6947 237.195 33.1471 237.195 33.6289ZM253.136 36.8125V24H255.499V39H253.361L253.136 36.8125ZM246.261 33.834V33.6289C246.261 32.8281 246.355 32.099 246.544 31.4414C246.733 30.7773 247.006 30.2077 247.364 29.7324C247.723 29.2507 248.159 28.8828 248.673 28.6289C249.187 28.3685 249.767 28.2383 250.411 28.2383C251.049 28.2383 251.609 28.362 252.091 28.6094C252.573 28.8568 252.983 29.2116 253.321 29.6738C253.66 30.1296 253.93 30.6764 254.132 31.3145C254.334 31.946 254.477 32.6491 254.562 33.4238V34.0781C254.477 34.8333 254.334 35.5234 254.132 36.1484C253.93 36.7734 253.66 37.3138 253.321 37.7695C252.983 38.2253 252.57 38.5768 252.081 38.8242C251.599 39.0716 251.036 39.1953 250.392 39.1953C249.754 39.1953 249.178 39.0618 248.663 38.7949C248.155 38.528 247.723 38.1536 247.364 37.6719C247.006 37.1901 246.733 36.6237 246.544 35.9727C246.355 35.3151 246.261 34.6022 246.261 33.834ZM248.614 33.6289V33.834C248.614 34.3158 248.657 34.765 248.741 35.1816C248.833 35.5983 248.973 35.9661 249.161 36.2852C249.35 36.5977 249.594 36.8451 249.894 37.0273C250.2 37.2031 250.564 37.291 250.988 37.291C251.521 37.291 251.961 37.1738 252.306 36.9395C252.651 36.7051 252.921 36.3893 253.116 35.9922C253.318 35.5885 253.455 35.1393 253.527 34.6445V32.877C253.488 32.4928 253.406 32.1348 253.282 31.8027C253.165 31.4707 253.006 31.181 252.804 30.9336C252.602 30.6797 252.351 30.4844 252.052 30.3477C251.759 30.2044 251.411 30.1328 251.007 30.1328C250.577 30.1328 250.213 30.224 249.913 30.4062C249.614 30.5885 249.366 30.8392 249.171 31.1582C248.982 31.4772 248.842 31.8483 248.751 32.2715C248.66 32.6947 248.614 33.1471 248.614 33.6289ZM260.63 28.4336V39H258.266V28.4336H260.63ZM258.11 25.6602C258.11 25.3021 258.227 25.0059 258.462 24.7715C258.703 24.5306 259.035 24.4102 259.458 24.4102C259.874 24.4102 260.203 24.5306 260.444 24.7715C260.685 25.0059 260.805 25.3021 260.805 25.6602C260.805 26.0117 260.685 26.3047 260.444 26.5391C260.203 26.7734 259.874 26.8906 259.458 26.8906C259.035 26.8906 258.703 26.7734 258.462 26.5391C258.227 26.3047 258.11 26.0117 258.11 25.6602ZM265.692 30.6895V39H263.338V28.4336H265.555L265.692 30.6895ZM265.272 33.3262L264.51 33.3164C264.517 32.5677 264.621 31.8809 264.823 31.2559C265.031 30.6309 265.317 30.0938 265.682 29.6445C266.053 29.1953 266.496 28.8503 267.01 28.6094C267.524 28.362 268.097 28.2383 268.729 28.2383C269.237 28.2383 269.696 28.3099 270.106 28.4531C270.523 28.5898 270.877 28.8145 271.17 29.127C271.47 29.4395 271.698 29.8464 271.854 30.3477C272.01 30.8424 272.088 31.4512 272.088 32.1738V39H269.725V32.1641C269.725 31.6562 269.65 31.2559 269.5 30.9629C269.357 30.6634 269.146 30.4518 268.866 30.3281C268.592 30.1979 268.25 30.1328 267.84 30.1328C267.437 30.1328 267.075 30.2174 266.756 30.3867C266.437 30.556 266.167 30.7871 265.946 31.0801C265.731 31.373 265.565 31.7116 265.448 32.0957C265.33 32.4798 265.272 32.89 265.272 33.3262ZM281.408 28.4336H283.547V38.707C283.547 39.6576 283.345 40.4648 282.941 41.1289C282.538 41.793 281.975 42.2975 281.252 42.6426C280.529 42.9941 279.693 43.1699 278.742 43.1699C278.339 43.1699 277.889 43.1113 277.395 42.9941C276.906 42.877 276.431 42.6882 275.969 42.4277C275.513 42.1738 275.132 41.8385 274.826 41.4219L275.93 40.0352C276.307 40.4844 276.724 40.8132 277.18 41.0215C277.635 41.2298 278.114 41.334 278.615 41.334C279.156 41.334 279.615 41.2331 279.992 41.0312C280.376 40.8359 280.673 40.5462 280.881 40.1621C281.089 39.778 281.193 39.3092 281.193 38.7559V30.8262L281.408 28.4336ZM274.23 33.834V33.6289C274.23 32.8281 274.328 32.099 274.523 31.4414C274.719 30.7773 274.999 30.2077 275.363 29.7324C275.728 29.2507 276.171 28.8828 276.691 28.6289C277.212 28.3685 277.801 28.2383 278.459 28.2383C279.143 28.2383 279.725 28.362 280.207 28.6094C280.695 28.8568 281.102 29.2116 281.428 29.6738C281.753 30.1296 282.007 30.6764 282.189 31.3145C282.378 31.946 282.518 32.6491 282.609 33.4238V34.0781C282.525 34.8333 282.382 35.5234 282.18 36.1484C281.978 36.7734 281.711 37.3138 281.379 37.7695C281.047 38.2253 280.637 38.5768 280.148 38.8242C279.667 39.0716 279.097 39.1953 278.439 39.1953C277.795 39.1953 277.212 39.0618 276.691 38.7949C276.177 38.528 275.734 38.1536 275.363 37.6719C274.999 37.1901 274.719 36.6237 274.523 35.9727C274.328 35.3151 274.23 34.6022 274.23 33.834ZM276.584 33.6289V33.834C276.584 34.3158 276.63 34.765 276.721 35.1816C276.818 35.5983 276.965 35.9661 277.16 36.2852C277.362 36.5977 277.616 36.8451 277.922 37.0273C278.234 37.2031 278.602 37.291 279.025 37.291C279.579 37.291 280.031 37.1738 280.383 36.9395C280.741 36.7051 281.014 36.3893 281.203 35.9922C281.398 35.5885 281.535 35.1393 281.613 34.6445V32.877C281.574 32.4928 281.493 32.1348 281.369 31.8027C281.252 31.4707 281.092 31.181 280.891 30.9336C280.689 30.6797 280.435 30.4844 280.129 30.3477C279.823 30.2044 279.462 30.1328 279.045 30.1328C278.622 30.1328 278.254 30.224 277.941 30.4062C277.629 30.5885 277.372 30.8392 277.17 31.1582C276.975 31.4772 276.828 31.8483 276.73 32.2715C276.633 32.6947 276.584 33.1471 276.584 33.6289Z" fill="white"/>
</g>
</g>
<g filter="url(#filter2_ddd_13_38271)">
<g clip-path="url(#clip3_13_38271)">
<rect x="433" y="942" width="102" height="40" rx="20" fill="#2196F3"/>
<path d="M455.891 963.76H457.6C457.545 964.411 457.363 964.993 457.053 965.503C456.743 966.009 456.308 966.408 455.747 966.699C455.187 966.991 454.505 967.137 453.703 967.137C453.088 967.137 452.534 967.027 452.042 966.809C451.55 966.585 451.128 966.271 450.777 965.865C450.426 965.455 450.158 964.961 449.971 964.382C449.788 963.803 449.697 963.156 449.697 962.44V961.613C449.697 960.898 449.791 960.251 449.978 959.672C450.169 959.093 450.442 958.599 450.798 958.188C451.153 957.774 451.579 957.457 452.076 957.238C452.577 957.02 453.14 956.91 453.765 956.91C454.558 956.91 455.228 957.056 455.774 957.348C456.321 957.639 456.745 958.043 457.046 958.558C457.351 959.073 457.538 959.663 457.606 960.328H455.897C455.852 959.9 455.752 959.533 455.597 959.228C455.446 958.922 455.223 958.69 454.927 958.53C454.631 958.366 454.243 958.284 453.765 958.284C453.373 958.284 453.031 958.357 452.739 958.503C452.448 958.649 452.204 958.863 452.008 959.146C451.812 959.428 451.664 959.777 451.563 960.191C451.468 960.602 451.42 961.071 451.42 961.6V962.44C451.42 962.942 451.463 963.397 451.55 963.808C451.641 964.213 451.778 964.562 451.96 964.854C452.147 965.145 452.384 965.371 452.671 965.53C452.958 965.69 453.302 965.77 453.703 965.77C454.191 965.77 454.585 965.692 454.886 965.537C455.191 965.382 455.421 965.157 455.576 964.86C455.736 964.56 455.84 964.193 455.891 963.76ZM466.134 961.203V962.563H460.85V961.203H466.134ZM461.274 957.047V967H459.558V957.047H461.274ZM467.454 957.047V967H465.745V957.047H467.454ZM473.897 958.373L470.923 967H469.125L472.871 957.047H474.02L473.897 958.373ZM476.385 967L473.404 958.373L473.275 957.047H474.43L478.19 967H476.385ZM476.241 963.309V964.669H470.827V963.309H476.241ZM482.937 957.047V967H481.235V957.047H482.937ZM486.061 957.047V958.414H478.138V957.047H486.061Z" fill="white"/>
<path d="M497 972V954C497 953.45 497.196 952.979 497.588 952.588C497.979 952.196 498.45 952 499 952H515C515.55 952 516.021 952.196 516.413 952.588C516.804 952.979 517 953.45 517 954V966C517 966.55 516.804 967.021 516.413 967.413C516.021 967.804 515.55 968 515 968H501L497 972ZM500.15 966H515V954H499V967.125L500.15 966Z" fill="#E8EAED"/>
</g>
</g>
<rect width="303" height="938" transform="translate(256 64)" fill="black" fill-opacity="0.5"/>
</g>
<defs>
<filter id="filter0_ddd_13_38271" x="-3" y="62" width="262" height="982" filterUnits="userSpaceOnUse" color-interpolation-filters="sRGB">
<feFlood flood-opacity="0" result="BackgroundImageFix"/>
<feColorMatrix in="SourceAlpha" type="matrix" values="0 0 0 0 0 0 0 0 0 0 0 0 0 0 0 0 0 0 127 0" result="hardAlpha"/>
<feMorphology radius="1" operator="erode" in="SourceAlpha" result="effect1_dropShadow_13_38271"/>
<feOffset dy="2"/>
<feGaussianBlur stdDeviation="0.5"/>
<feComposite in2="hardAlpha" operator="out"/>
<feColorMatrix type="matrix" values="0 0 0 0 0 0 0 0 0 0 0 0 0 0 0 0 0 0 0.2 0"/>
<feBlend mode="normal" in2="BackgroundImageFix" result="effect1_dropShadow_13_38271"/>
<feColorMatrix in="SourceAlpha" type="matrix" values="0 0 0 0 0 0 0 0 0 0 0 0 0 0 0 0 0 0 127 0" result="hardAlpha"/>
<feOffset dy="1"/>
<feGaussianBlur stdDeviation="0.5"/>
<feComposite in2="hardAlpha" operator="out"/>
<feColorMatrix type="matrix" values="0 0 0 0 0 0 0 0 0 0 0 0 0 0 0 0 0 0 0.14 0"/>
<feBlend mode="normal" in2="effect1_dropShadow_13_38271" result="effect2_dropShadow_13_38271"/>
<feColorMatrix in="SourceAlpha" type="matrix" values="0 0 0 0 0 0 0 0 0 0 0 0 0 0 0 0 0 0 127 0" result="hardAlpha"/>
<feOffset dy="1"/>
<feGaussianBlur stdDeviation="1.5"/>
<feComposite in2="hardAlpha" operator="out"/>
<feColorMatrix type="matrix" values="0 0 0 0 0 0 0 0 0 0 0 0 0 0 0 0 0 0 0.12 0"/>
<feBlend mode="normal" in2="effect2_dropShadow_13_38271" result="effect3_dropShadow_13_38271"/>
<feBlend mode="normal" in="SourceGraphic" in2="effect3_dropShadow_13_38271" result="shape"/>
</filter>
<filter id="filter1_ddd_13_38271" x="-10" y="-9" width="579" height="84" filterUnits="userSpaceOnUse" color-interpolation-filters="sRGB">
<feFlood flood-opacity="0" result="BackgroundImageFix"/>
<feColorMatrix in="SourceAlpha" type="matrix" values="0 0 0 0 0 0 0 0 0 0 0 0 0 0 0 0 0 0 127 0" result="hardAlpha"/>
<feMorphology radius="1" operator="erode" in="SourceAlpha" result="effect1_dropShadow_13_38271"/>
<feOffset dy="2"/>
<feGaussianBlur stdDeviation="2"/>
<feComposite in2="hardAlpha" operator="out"/>
<feColorMatrix type="matrix" values="0 0 0 0 0 0 0 0 0 0 0 0 0 0 0 0 0 0 0.2 0"/>
<feBlend mode="normal" in2="BackgroundImageFix" result="effect1_dropShadow_13_38271"/>
<feColorMatrix in="SourceAlpha" type="matrix" values="0 0 0 0 0 0 0 0 0 0 0 0 0 0 0 0 0 0 127 0" result="hardAlpha"/>
<feOffset dy="4"/>
<feGaussianBlur stdDeviation="2.5"/>
<feComposite in2="hardAlpha" operator="out"/>
<feColorMatrix type="matrix" values="0 0 0 0 0 0 0 0 0 0 0 0 0 0 0 0 0 0 0.14 0"/>
<feBlend mode="normal" in2="effect1_dropShadow_13_38271" result="effect2_dropShadow_13_38271"/>
<feColorMatrix in="SourceAlpha" type="matrix" values="0 0 0 0 0 0 0 0 0 0 0 0 0 0 0 0 0 0 127 0" result="hardAlpha"/>
<feOffset dy="1"/>
<feGaussianBlur stdDeviation="5"/>
<feComposite in2="hardAlpha" operator="out"/>
<feColorMatrix type="matrix" values="0 0 0 0 0 0 0 0 0 0 0 0 0 0 0 0 0 0 0.12 0"/>
<feBlend mode="normal" in2="effect2_dropShadow_13_38271" result="effect3_dropShadow_13_38271"/>
<feBlend mode="normal" in="SourceGraphic" in2="effect3_dropShadow_13_38271" result="shape"/>
</filter>
<filter id="filter2_ddd_13_38271" x="415" y="925" width="138" height="76" filterUnits="userSpaceOnUse" color-interpolation-filters="sRGB">
<feFlood flood-opacity="0" result="BackgroundImageFix"/>
<feColorMatrix in="SourceAlpha" type="matrix" values="0 0 0 0 0 0 0 0 0 0 0 0 0 0 0 0 0 0 127 0" result="hardAlpha"/>
<feMorphology radius="1" operator="erode" in="SourceAlpha" result="effect1_dropShadow_13_38271"/>
<feOffset dy="3"/>
<feGaussianBlur stdDeviation="2.5"/>
<feComposite in2="hardAlpha" operator="out"/>
<feColorMatrix type="matrix" values="0 0 0 0 0 0 0 0 0 0 0 0 0 0 0 0 0 0 0.2 0"/>
<feBlend mode="normal" in2="BackgroundImageFix" result="effect1_dropShadow_13_38271"/>
<feColorMatrix in="SourceAlpha" type="matrix" values="0 0 0 0 0 0 0 0 0 0 0 0 0 0 0 0 0 0 127 0" result="hardAlpha"/>
<feOffset dy="6"/>
<feGaussianBlur stdDeviation="5"/>
<feComposite in2="hardAlpha" operator="out"/>
<feColorMatrix type="matrix" values="0 0 0 0 0 0 0 0 0 0 0 0 0 0 0 0 0 0 0.14 0"/>
<feBlend mode="normal" in2="effect1_dropShadow_13_38271" result="effect2_dropShadow_13_38271"/>
<feColorMatrix in="SourceAlpha" type="matrix" values="0 0 0 0 0 0 0 0 0 0 0 0 0 0 0 0 0 0 127 0" result="hardAlpha"/>
<feOffset dy="1"/>
<feGaussianBlur stdDeviation="9"/>
<feComposite in2="hardAlpha" operator="out"/>
<feColorMatrix type="matrix" values="0 0 0 0 0 0 0 0 0 0 0 0 0 0 0 0 0 0 0.12 0"/>
<feBlend mode="normal" in2="effect2_dropShadow_13_38271" result="effect3_dropShadow_13_38271"/>
<feBlend mode="normal" in="SourceGraphic" in2="effect3_dropShadow_13_38271" result="shape"/>
</filter>
<clipPath id="clip0_13_38271">
<rect width="559" height="1002" fill="white"/>
</clipPath>
<clipPath id="clip1_13_38271">
<rect width="559" height="64" fill="white"/>
</clipPath>
<clipPath id="clip2_13_38271">
<rect width="205" height="32" fill="white" transform="translate(80 16)"/>
</clipPath>
<clipPath id="clip3_13_38271">
<rect x="433" y="942" width="102" height="40" rx="20" fill="white"/>
</clipPath>
</defs>
</svg>
